<?xml version="1.0" encoding="UTF-8" standalone="no"?>
<svg
   id="svg"
   version="1.1"
   style="display: block;"
   viewBox="0 0 1176 1175"
   sodipodi:docname="CMA_logo.svg"
   inkscape:version="1.2.2 (732a01da63, 2022-12-09)"
   xmlns:inkscape="http://www.inkscape.org/namespaces/inkscape"
   xmlns:sodipodi="http://sodipodi.sourceforge.net/DTD/sodipodi-0.dtd"
   xmlns="http://www.w3.org/2000/svg"
   xmlns:svg="http://www.w3.org/2000/svg">
  <defs
     id="defs223" />
  <sodipodi:namedview
     id="namedview221"
     pagecolor="#ffffff"
     bordercolor="#000000"
     borderopacity="0.25"
     inkscape:showpageshadow="2"
     inkscape:pageopacity="0.0"
     inkscape:pagecheckerboard="0"
     inkscape:deskcolor="#d1d1d1"
     showgrid="false"
     inkscape:zoom="0.51453302"
     inkscape:cx="456.72482"
     inkscape:cy="625.81018"
     inkscape:window-width="1920"
     inkscape:window-height="1009"
     inkscape:window-x="1912"
     inkscape:window-y="-8"
     inkscape:window-maximized="1"
     inkscape:current-layer="svg" />
  <path
     d="m 672,211 c 0.33,0.33 0.66,0.66 1,1 1.68279,0.27996 3.37183,0.52245 5.0625,0.75 7.22262,1.15528 14.01954,3.29299 20.93799,5.58984 1.87909,0.6204 3.76528,1.21916 5.65185,1.81641 15.13747,4.86503 30.2501,10.7139 44.47266,17.84375 0.99258,0.495 1.98516,0.99 3.00781,1.5 1.83919,0.96219 3.65115,1.97948 5.42188,3.0625 2.36618,1.4783 2.36618,1.4783 4.78882,2.35059 2.7071,1.10762 5.09478,2.41796 7.60571,3.91503 0.93135,0.55301 1.86269,1.10602 2.82226,1.67579 0.96229,0.57621 1.92457,1.15242 2.91602,1.74609 0.94295,0.56074 1.8859,1.12148 2.85742,1.69922 1.88491,1.12187 3.76759,2.24749 5.64795,3.37695 1.90547,1.13619 3.82028,2.25682 5.74317,3.36328 1.37164,0.79568 1.37164,0.79568 2.77099,1.60742 0.82605,0.47277 1.6521,0.94553 2.50318,1.43262 0.88594,0.6289 0.88594,0.6289 1.78979,1.27051 0,0.66 0,1.32 0,2 0.56977,0.0941 1.13953,0.1882 1.72656,0.28516 2.81815,0.88611 4.39597,2.24197 6.64844,4.15234 3.46401,2.86378 6.97234,5.54175 10.66797,8.09082 7.375,5.09168 13.86856,10.77125 20.33472,16.96045 1.79913,1.67595 3.64803,3.28321 5.50903,4.89014 4.17856,3.63411 8.13793,7.45394 12.05078,11.37109 0.69803,0.69811 1.39605,1.39622 2.11523,2.11548 4.65066,4.70203 8.93782,9.51488 13.02539,14.71655 1.80882,2.27573 3.7022,4.40644 5.67188,6.54297 9.10629,10.14649 17.14922,21.25405 24.25,32.875 1.57219,2.46554 3.16131,4.92007 4.75,7.375 4.28455,6.62532 8.21075,13.32789 11.875,20.3125 0.43441,0.82782 0.86883,1.65564 1.31641,2.50854 3.05976,5.8518 6.08358,11.72112 9.05859,17.61646 0.37334,0.73372 0.74669,1.46744 1.13135,2.22339 1.96649,3.92616 3.54387,7.76612 4.86865,11.96411 0.79322,1.98697 1.606,3.96624 2.4375,5.9375 0.43828,1.04285 0.87656,2.0857 1.32812,3.16016 0.963,2.26425 1.93752,4.52236 2.92188,6.77734 1.26574,3.01368 2.31656,6.01268 3.3125,9.125 0.23719,0.69094 0.47437,1.38187 0.71875,2.09375 1.29321,3.77619 2.47386,7.52361 3.40625,11.40625 0.50699,3.30349 0.50699,3.30349 1.875,4.5 0.3296,1.42928 0.61261,2.86937 0.875,4.3125 0.70454,3.73223 1.55095,7.38216 2.53125,11.05078 1.70276,6.75233 2.84926,13.56703 3.90137,20.44483 0.31615,2.05886 0.64431,4.11556 0.97363,6.17236 0.21166,1.35796 0.42262,2.71603 0.63281,4.07422 0.18514,1.19093 0.37029,2.38186 0.56104,3.60888 1.48046,11.183 1.69677,22.43543 1.72802,33.69971 0.003,0.70617 0.006,1.41234 0.009,2.13991 0.0149,3.74414 0.0242,7.48824 0.0285,11.23241 0.004,3.0317 0.0182,6.06311 0.041,9.09472 0.2114,28.72013 -1.66166,57.31413 -9.28162,85.16968 -0.33,0.33 -0.66,0.66 -1,1 -0.35209,1.4912 -0.65625,2.99383 -0.9375,4.5 -0.26297,1.35932 -0.26297,1.35932 -0.53125,2.74609 -0.17531,0.90879 -0.35062,1.81758 -0.53125,2.75391 -2.17417,10.88896 -6.05618,20.74961 -10.4375,30.9375 -0.95798,2.23787 -1.91503,4.47615 -2.87109,6.71484 -0.46004,1.07637 -0.92007,2.15274 -1.39405,3.26172 -1.17071,2.78468 -2.29299,5.58214 -3.39502,8.39453 -1.74311,4.39802 -3.74387,8.60908 -5.90234,12.81641 -0.33,0.65098 -0.66,1.30195 -1,1.97266 -0.66332,1.30849 -1.32834,2.61612 -1.99512,3.92285 -1.03935,2.04739 -2.06195,4.10261 -3.08301,6.15918 -1.4882,2.9815 -3.03785,5.91539 -4.67187,8.82031 -0.42797,0.76312 -0.85594,1.52625 -1.29688,2.3125 -0.31453,0.55687 -0.62906,1.11375 -0.95312,1.6875 -0.66,0 -1.32,0 -2,0 -0.11553,0.73896 -0.23106,1.47791 -0.3501,2.23926 -1.03848,4.4114 -3.558,7.75978 -6.0249,11.51074 -0.7425,1.16982 -0.7425,1.16982 -1.5,2.36328 -0.48211,0.74121 -0.96422,1.48242 -1.46094,2.24609 -0.43876,0.67515 -0.87753,1.3503 -1.32959,2.0459 C 896,785 896,785 893,786 c 0,1.32 0,2.64 0,4 -0.66,0 -1.32,0 -2,0 -0.33,1.32 -0.66,2.64 -1,4 -0.66,0 -1.32,0 -2,0 -0.18563,0.66 -0.37125,1.32 -0.5625,2 -1.70972,3.56811 -3.95114,6.00235 -6.59766,8.91406 -1.64399,1.86389 -3.08896,3.75031 -4.52734,5.77344 -4.12282,5.60308 -8.99374,10.56296 -13.74561,15.62793 -1.51923,1.63333 -3.01741,3.28317 -4.5083,4.94238 -4.51734,5.02126 -9.0554,9.82727 -14.24218,14.17578 -1.81574,1.56583 -3.46584,3.21543 -5.12891,4.94141 -4.54933,4.62154 -9.64092,8.56609 -14.6875,12.625 -2.83259,2.34934 -5.66438,4.69959 -8.49219,7.05469 C 813,872 813,872 810.58594,873.44531 c -3.2266,1.93986 -6.13572,4.22737 -9.08594,6.55469 -3.03132,2.3913 -6.01598,4.71278 -9.34375,6.6875 -2.28644,1.12997 -2.28644,1.12997 -3.15625,3.3125 -0.80437,0.2475 -1.60875,0.495 -2.4375,0.75 -3.94972,1.38587 -7.11278,3.29034 -10.66406,5.47656 -24.34578,14.8962 -24.34578,14.8962 -31.67578,16.3086 -0.73348,0.15339 -1.46696,0.30679 -2.22266,0.46484 -0.33,0.66 -0.66,1.32 -1,2 -1.98227,0.71767 -3.98648,1.37536 -6,2 -2.07073,0.81266 -4.13343,1.64609 -6.1875,2.5 -1.02481,0.42281 -2.04961,0.84563 -3.10547,1.28125 -2.84329,1.19099 -2.84329,1.19099 -5.70703,3.21875 -2.32809,0.68473 -4.66238,1.34853 -7,2 -1.29611,0.48835 -2.58776,0.9887 -3.875,1.5 -3.71592,1.43983 -7.43373,2.30651 -11.33984,3.07031 -1.79793,0.26846 -1.79793,0.26846 -2.78516,1.42969 -1.30219,0.35299 -2.61782,0.65686 -3.9375,0.9375 -1.21623,0.26297 -1.21623,0.26297 -2.45703,0.53125 -1.723,0.35132 -3.44969,0.68498 -5.17969,1 -1.26264,0.23203 -1.26264,0.23203 -2.55078,0.46875 -0.7657,0.13277 -1.53141,0.26555 -2.32031,0.40234 -2.71407,0.62153 -2.71407,0.62153 -5.70532,2.10328 -3.92788,1.70277 -7.78108,2.46522 -11.9939,3.12719 -1.15299,0.18984 -1.15299,0.18984 -2.32927,0.38352 -1.62381,0.26482 -3.24838,0.52509 -4.87361,0.78103 -2.42244,0.38339 -4.84109,0.786 -7.26001,1.19092 -18.65605,3.04984 -37.16444,3.26081 -56.04053,3.25952 -3.58231,0.002 -7.16432,0.0204 -10.74658,0.0393 -19.726,0.0497 -38.97877,-1.30622 -58.41797,-4.66211 -1.25619,-0.20432 -2.51238,-0.40863 -3.80664,-0.61914 -6.03624,-1.01927 -11.79302,-2.16639 -17.53247,-4.32227 -2.87317,-0.96544 -5.8551,-1.20203 -8.84839,-1.62109 -0.99,-0.66 -1.98,-1.32 -3,-2 -2.32915,-0.36142 -4.66253,-0.697 -7,-1 -0.33,-0.33 -0.66,-0.66 -1,-1 -1.34676,-0.32416 -2.70303,-0.60917 -4.0625,-0.875 -3.75475,-0.80417 -7.21473,-1.86914 -10.78125,-3.27734 -2.49308,-0.98007 -5.00934,-1.88195 -7.53125,-2.78516 -5.25667,-1.90755 -10.44978,-3.94497 -15.625,-6.0625 -0.7077,-0.27973 -1.41539,-0.55945 -2.14453,-0.84766 -4.73981,-1.92102 -4.73981,-1.92102 -5.85547,-4.15234 -1.71109,-0.69727 -1.71109,-0.69727 -3.8125,-1.25 -19.37023,-6.16325 -38.51343,-18.94817 -54.72656,-30.95703 -2.01428,-1.46754 -4.04278,-2.83834 -6.14844,-4.16797 -0.76312,-0.53625 -1.52625,-1.0725 -2.3125,-1.625 0,-0.66 0,-1.32 0,-2 -0.70641,-0.23332 -1.41281,-0.46664 -2.14062,-0.70703 -3.41036,-1.54211 -5.77825,-3.53507 -8.60938,-5.98047 -1.05639,-0.9008 -2.11369,-1.80054 -3.17187,-2.69922 -0.51885,-0.44263 -1.0377,-0.88526 -1.57227,-1.34131 -2.13385,-1.80243 -4.31036,-3.54538 -6.50586,-5.27197 -0.68063,-0.53625 -1.36125,-1.0725 -2.0625,-1.625 -1.87749,-1.43646 -1.87749,-1.43646 -4,-2.25 C 337,852 337,852 335.71875,849.81641 333.2781,845.81707 329.96012,843.05859 326.5,839.9375 317.15089,831.33485 308.68189,822.33504 300.84375,812.3125 299.04536,810.05689 297.1723,807.90037 295.25,805.75 288,797.55435 288,797.55435 288,794 c -0.99,-0.33 -1.98,-0.66 -3,-1 0,-0.99 0,-1.98 0,-3 -0.66,0 -1.32,0 -2,0 -0.41379,-0.87785 -0.82758,-1.7557 -1.25391,-2.66016 -1.67139,-3.19696 -3.51141,-5.90472 -5.68359,-8.77734 C 268,767.64917 268,767.64917 268,763 c -0.99,-0.33 -1.98,-0.66 -3,-1 -1.02734,-1.56641 -1.02734,-1.56641 -1.9375,-3.5625 -0.29777,-0.64066 -0.59555,-1.28133 -0.90234,-1.94141 C 261.7773,755.67238 261.39445,754.84867 261,754 c -1.93124,-3.97458 -3.92247,-7.90379 -6.07812,-11.76172 -4.79219,-8.61715 -8.64654,-17.28552 -12.02662,-26.54809 -2.46195,-6.71255 -5.32802,-13.08313 -8.5476,-19.46363 C 232.90939,692.78306 232.43494,689.69013 232,686 c -0.33,-0.33 -0.66,-0.66 -1,-1 -0.22533,-2.028 -0.44767,-4.05675 -0.62109,-6.08984 C 230.13778,676.76711 230.13778,676.76711 228,675 c -0.34375,-2.02344 -0.34375,-2.02344 -0.5,-4.375 -0.19529,-3.26877 -0.19529,-3.26877 -1.41577,-6.24609 -1.56766,-3.4396 -2.11313,-7.03415 -2.77564,-10.73047 -0.15017,-0.81408 -0.30034,-1.62815 -0.45506,-2.46689 -0.31633,-1.72258 -0.62966,-3.44571 -0.9402,-5.16934 -0.47063,-2.6084 -0.95193,-5.21465 -1.43481,-7.8208 -0.30729,-1.68088 -0.61395,-3.36186 -0.91993,-5.04297 -0.14168,-0.76705 -0.28336,-1.53409 -0.42933,-2.32437 -1.96582,-10.99211 -2.27927,-21.80737 -2.26207,-32.95298 -6.8e-4,-1.55924 -0.002,-3.11848 -0.003,-4.67772 -0.001,-3.25856 6.4e-4,-6.51709 0.005,-9.77565 0.006,-4.12559 0.002,-8.25112 -0.004,-12.37671 -0.004,-3.22013 -0.002,-6.44024 1.2e-4,-9.66038 6.6e-4,-1.51825 -1.1e-4,-3.03651 -0.002,-4.55477 -0.01,-8.00093 0.12519,-15.9715 0.57893,-23.96087 0.0383,-0.68724 0.0766,-1.37448 0.11605,-2.08255 0.40654,-6.4906 1.47718,-12.78958 2.75382,-19.15744 0.33874,-1.74205 0.33874,-1.74205 0.68433,-3.51929 0.45289,-2.31572 0.91081,-4.63046 1.37426,-6.94409 0.54336,-2.73154 1.06123,-5.4658 1.56641,-8.20459 3.47255,-18.28926 9.08613,-36.25117 16.5,-53.32031 1.36865,-3.18553 2.57822,-6.37555 3.75,-9.63672 2.55829,-6.72831 5.65086,-13.19361 8.75,-19.6875 0.50233,-1.05768 1.00466,-2.11535 1.52222,-3.20508 3.1839,-6.59814 6.67781,-12.88534 10.54028,-19.10742 1.00048,-1.66638 2.00053,-3.33301 3,-5 1.58111,-2.5104 3.1827,-5.00706 4.78516,-7.50391 1.70758,-2.67561 3.36942,-5.3769 5.02343,-8.08593 4.93105,-8.02538 9.7016,-15.56946 16.25782,-22.3711 1.77426,-1.87104 3.25608,-3.75258 4.74609,-5.85156 3.68354,-5.07259 8.04327,-9.53308 12.32031,-14.10156 2.12375,-2.27106 4.17553,-4.58295 6.17969,-6.96094 8.28609,-9.54217 17.40842,-18.40878 27.34375,-26.21094 2.12875,-1.73848 3.97105,-3.53386 5.84375,-5.53906 3.43244,-3.5632 7.36594,-5.91077 11.57813,-8.46484 4.16492,-2.7228 7.86095,-5.92398 11.60937,-9.1875 C 376,267 376,267 379,267 c 0.33,-0.99 0.66,-1.98 1,-3 1.93359,-1.14063 1.93359,-1.14063 4.4375,-2.25 3.77834,-1.7872 7.11773,-3.7321 10.5,-6.1875 6.91968,-5.00179 14.43753,-8.76415 22.0625,-12.5625 1.25678,-0.63359 2.51327,-1.26773 3.76953,-1.90234 13.00698,-6.55536 13.00698,-6.55536 19.22656,-9.23438 1.41648,-0.61021 2.82469,-1.23977 4.22657,-1.88281 4.5061,-2.06369 8.99865,-3.8031 13.73437,-5.26953 2.04235,-0.64823 2.04235,-0.64823 3.80469,-1.67188 2.61217,-1.21263 5.26312,-1.81504 8.05713,-2.47656 3.70098,-0.95445 7.26733,-2.29043 10.86865,-3.5625 6.6504,-2.30227 12.8911,-3.83409 19.90625,-4.57813 C 503.17642,212.2065 503.17642,212.2065 505,210 c 2.53332,-0.56434 4.99874,-1.00196 7.5625,-1.375 0.80268,-0.1223 1.60537,-0.2446 2.43237,-0.37061 10.20624,-1.50603 20.4592,-2.69171 30.70459,-3.89648 0.70063,-0.0827 1.40125,-0.16536 2.12311,-0.25055 1.92265,-0.22628 3.84557,-0.45034 5.76849,-0.67425 2.17055,-0.27577 4.33623,-0.59602 6.49122,-0.97461 C 593.0517,197.27763 640.35809,200.59659 672,211 Z"
     style="fill:#fefefe;fill-opacity:0"
     id="path4" />
  <g
     id="g1402">
    <path
       d="m 641,362.80742 c 1.1782,0.31711 2.35641,0.63422 3.57031,0.96094 14.98261,4.48524 29.3061,12.17952 41.42969,22.03906 1.02094,0.81984 2.04187,1.63969 3.09375,2.48437 11.84753,9.67875 22.57179,20.38083 31.90625,32.51563 0.4573,0.59152 0.91459,1.18304 1.38574,1.79248 7.2944,9.46541 14.15439,19.15522 20.61426,29.20752 0.46277,0.71881 0.92555,1.43763 1.40234,2.17822 1.41519,2.20668 2.8211,4.41892 4.22266,6.63428 0.43844,0.68836 0.87688,1.37672 1.32861,2.08594 C 753,467.57221 753,467.57221 753,469.80742 c -39.36117,15.54115 -82.21403,28.61501 -125,28 -0.11867,0.85481 -0.23735,1.70962 -0.35962,2.59033 -0.65802,3.50357 -1.68154,6.61135 -2.88647,9.96436 -3.34128,9.67593 -5.57416,19.59315 -7.81641,29.57031 -0.21816,0.96189 -0.43633,1.92378 -0.6611,2.91483 -5.7468,25.45502 -9.4496,50.80511 -9.40921,76.95626 -6.8e-4,1.4052 -0.002,2.8104 -0.003,4.2156 -0.001,2.92367 6.2e-4,5.84731 0.005,8.77098 0.006,3.70542 0.002,7.41078 -0.004,11.11621 -0.004,2.89574 -0.002,5.79147 1.3e-4,8.68721 9.7e-4,2.01698 -0.002,4.03396 -0.005,6.05093 0.0211,8.43724 0.4278,16.75664 1.13894,25.16298 25.00784,-3.60702 53.02603,-12.66829 72,-30 0.50773,-0.46003 1.01546,-0.92007 1.53858,-1.39404 9.98922,-9.15898 17.82566,-19.16171 23.46146,-31.60596 0,-0.99 0,-1.98 0,-3 -0.66306,-0.28085 -1.32612,-0.56171 -2.00928,-0.85107 C 678.67027,606.60051 657.39889,594.25514 636,578.80742 c 1.37196,-3.16237 2.85651,-4.99362 5.5,-7.1875 3.05505,-2.57582 6.01377,-5.21369 8.9375,-7.9375 15.75704,-14.18134 33.02447,-25.62741 52.5625,-33.875 1.07121,-0.45891 2.14242,-0.91781 3.24609,-1.39063 8.04336,-2.85182 15.9075,-2.98265 24.37891,-3.04687 1.13228,-0.0103 2.26456,-0.0206 3.43115,-0.0312 21.64559,0.22662 40.48455,9.80583 55.55664,25.00391 16.02285,16.91958 25.08688,40.1274 32.38721,61.83984 0.39832,1.18376 0.79664,2.36752 1.20703,3.58716 C 826,624.29344 826,624.29344 826,628.80742 c -6.56369,1.47497 -12.90521,2.3749 -19.625,2.625 -1.33865,0.0547 -1.33865,0.0547 -2.70435,0.1106 -19.67821,0.72668 -39.49224,1.35867 -58.67065,-3.7356 -0.33,1.155 -0.66,2.31 -1,3.5 -5.69096,16.91331 -15.72554,31.68718 -28,44.5 -1.00934,1.10408 -1.00934,1.10408 -2.03906,2.23047 -22.27213,23.56508 -54.01202,34.85722 -84.55176,43.10937 -2.12501,0.58229 -4.23069,1.20794 -6.33887,1.84766 C 620,723.80742 620,723.80742 616,723.80742 c 1.28509,3.60655 2.57919,7.20979 3.875,10.8125 0.36481,1.02416 0.72961,2.04832 1.10547,3.10352 0.35449,0.98291 0.70898,1.96582 1.07422,2.97851 0.32468,0.90597 0.64936,1.81194 0.98388,2.74536 0.95254,2.56323 0.95254,2.56323 2.96143,5.36011 3.54298,1.05302 7.02014,1.14509 10.69922,1.21094 86.25413,2.02246 86.25413,2.02246 109.36328,24.53906 0.63938,0.7425 1.27875,1.485 1.9375,2.25 0.66,0.66 1.32,1.32 2,2 0.61287,4.51995 0.71189,7.719 -2,11.5 -8.96744,9.22005 -23.86789,13.3371 -36,16.5 -0.68755,0.18015 -1.37511,0.36029 -2.0835,0.5459 -11.69003,2.98388 -23.53571,4.73436 -35.51709,6.073 -2.51246,0.28167 -5.01765,0.58641 -7.52539,0.90478 -13.96742,1.6792 -27.86463,1.74926 -41.91894,1.68213 -3.94864,-0.0183 -7.89703,-0.0205 -11.84571,-0.0203 -26.04615,-0.036 -51.19518,-1.16066 -76.69873,-6.6709 -2.25943,-0.48237 -4.52291,-0.93481 -6.78955,-1.38184 -14.62646,-3.0076 -33.9053,-8.05909 -42.62109,-21.13277 -0.62193,-3.52429 -0.66052,-5.89984 1.21484,-9.02344 18.42589,-22.63133 58.93772,-23.58544 85.75855,-26.68872 C 577,750.80742 577,750.80742 581,750.80742 c -0.21092,-0.86649 -0.42185,-1.73298 -0.63916,-2.62573 -4.21556,-17.47182 -8.01132,-34.93578 -10.86084,-52.68677 -0.12933,-0.79732 -0.25866,-1.59463 -0.39191,-2.41611 -2.26581,-14.06954 -2.26581,-14.06954 -2.10809,-20.27139 -1.53721,0.23977 -1.53721,0.23977 -3.10547,0.48437 -17.58994,2.17799 -36.62083,1.42869 -53.89453,-2.48437 -1.0132,-0.22478 -1.0132,-0.22478 -2.04687,-0.4541 -18.18481,-4.14973 -34.97416,-12.11486 -48.95313,-24.5459 -0.74637,-0.65227 -1.49273,-1.30453 -2.26172,-1.97656 C 445.64862,633.49599 439.02958,620.91064 434,606.80742 c -0.34805,-0.82371 -0.69609,-1.64742 -1.05469,-2.49609 -1.17171,-3.10359 -1.8732,-6.1988 -2.57031,-9.44141 -0.26039,-1.18465 -0.52078,-2.3693 -0.78906,-3.58984 -0.54674,-3.24035 -0.69601,-6.19564 -0.58594,-9.47266 -0.86045,-0.0561 -0.86045,-0.0561 -1.73828,-0.11328 -26.18379,-2.02636 -53.66368,-8.0877 -77.26172,-19.88672 0.91907,-4.33317 3.084,-7.67942 5.4375,-11.375 0.44811,-0.70753 0.89622,-1.41507 1.35791,-2.14404 18.10344,-28.32343 41.04047,-56.34227 75.20459,-64.48096 20.32968,-4.25901 41.23366,0.44717 58.76172,11.21094 6.93181,4.6759 13.23385,9.97894 19.23828,15.78906 0.54423,0.52159 1.08845,1.04317 1.64917,1.58057 4.03267,3.93213 7.57302,8.01384 10.91333,12.54443 0.49742,0.66798 0.99483,1.33595 1.50732,2.02417 6.17768,8.39924 11.89368,17.11875 17.6084,25.83643 1.09993,1.6763 2.20963,3.34618 3.32178,5.0144 -0.11328,2.03516 -0.11328,2.03516 -1,4 -18.68625,13.63811 -48.8312,16.52368 -70.97241,19.6145 -2.01591,0.18629 -2.01591,0.18629 -3.02759,1.3855 0.37613,11.05832 7.41454,24.49068 15.03516,32.33594 17.80714,15.0812 38.50777,18.34405 60.96484,17.91406 1.85415,-0.0201 3.70832,-0.0384 5.5625,-0.0547 4.47971,-0.0435 8.95836,-0.11213 13.4375,-0.19531 -0.0145,-0.88921 -0.029,-1.77842 -0.0439,-2.69458 -0.0884,-9.73134 0.42442,-19.30352 1.29394,-28.99292 0.0994,-1.13111 0.0994,-1.13111 0.20075,-2.28506 3.0161,-34.04981 8.47728,-68.5748 19.54925,-101.02743 -1.54881,-0.14695 -1.54881,-0.14695 -3.12891,-0.29688 -12.74471,-1.27476 -25.29223,-3.30613 -37.87109,-5.70312 -1.09667,-0.20609 -2.19334,-0.41218 -3.32324,-0.62451 C 518.23847,486.70747 495.58262,480.08643 474,469.80742 c 3.97638,-28.6299 42.48698,-66.67726 64.43359,-83.71484 C 567.88997,364.016 604.53422,352.44878 641,362.80742 Z"
       style="fill:#010101"
       id="path8" />
    <g
       id="g1395">
      <path
         d="m 666.89648,402.17363 c 14.61967,10.94657 28.13365,24.02087 39.10352,38.63379 0.44134,0.5862 0.88268,1.1724 1.3374,1.77637 1.42102,1.89891 2.82634,3.80827 4.2251,5.72363 0.44263,0.60022 0.88526,1.20044 1.3413,1.81885 3.0962,4.32775 3.0962,4.32775 3.0962,7.68115 -28.51716,9.63126 -58.97814,13.5646 -89,14 -1.52996,0.0309 -3.05991,0.0623 -4.58985,0.0942 -24.17676,0.47691 -47.50412,-0.39689 -71.41015,-4.09424 -1.78752,-0.25435 -3.57525,-0.50716 -5.36329,-0.75781 -25.08553,-3.67604 -25.08553,-3.67604 -35.63671,-9.24219 1.72874,-13.39774 18.10101,-27.42968 27,-37 0.67289,-0.73863 1.34578,-1.47727 2.03906,-2.23828 10.23724,-10.7932 22.85967,-18.8812 35.96094,-25.76172 0.91007,-0.48211 1.82015,-0.96422 2.75781,-1.46094 29.3227,-14.44252 63.26335,-7.81321 89.13867,10.82715 z"
         style="fill:#fdfdfd"
         id="path12" />
      <path
         d="m 760.53906,558.00273 c 16.10154,11.8078 26.55952,28.20638 33.46094,46.80469 0,0.99 0,1.98 0,3 -41.48515,1.6472 -82.66205,-11.89395 -119,-31 3.47083,-9.39663 20.33402,-16.55617 29,-21 18.77719,-8.11271 38.79051,-9.34986 56.53906,2.19531 z"
         style="fill:#fcfcfc"
         id="path14" />
      <path
         d="m 447.375,507.49492 c 0.83926,0.006 1.67852,0.0113 2.54321,0.0171 6.14251,0.12043 11.42594,0.76792 17.08179,3.29541 0.96035,0.41379 1.9207,0.82758 2.91016,1.25391 7.21477,3.34743 13.0813,7.57896 19.08984,12.74609 1.0622,0.83372 2.12465,1.66711 3.1875,2.5 3.63268,3.22905 6.71858,6.7593 9.8125,10.5 0.99,1.19303 0.99,1.19303 2,2.41016 5,6.19959 5,6.19959 5,9.58984 -30.4496,8.05177 -61.16575,8.57299 -92.375,5.6875 -1.28125,-0.11747 -2.5625,-0.23493 -3.88257,-0.35596 -19.00296,-1.9618 -19.00296,-1.9618 -25.74243,-5.33154 0.98801,-5.39789 4.55562,-8.89489 8,-13 0.79793,-0.95777 1.59586,-1.91555 2.41797,-2.90234 12.86854,-14.9733 29.6649,-26.55322 49.95703,-26.41016 z"
         style="fill:#fcfcfc"
         id="path16" />
    </g>
  </g>
  <path
     d="m 413.0625,100.9375 c 1.45406,0.0309 1.45406,0.0309 2.9375,0.0625 -0.33,0.99 -0.66,1.98 -1,3 -0.66,0 -1.32,0 -2,0 -1.51905,9.95823 2.37062,16.53074 6.93945,24.96582 1.65171,3.16805 3.05534,6.42814 4.43555,9.72168 0.69223,1.64549 0.69223,1.64549 1.39844,3.32422 0.78187,1.90488 1.54329,3.81837 2.27734,5.74219 1.19717,2.83281 2.55176,4.32812 4.94922,6.24609 2.64184,0.79681 2.64184,0.79681 5,1 0,0.99 0,1.98 0,3 -0.70125,0.24234 -1.4025,0.48469 -2.125,0.73437 -4.59276,1.62245 -9.05262,3.25767 -13.375,5.51563 C 419,166 419,166 416,166 c 1.20381,-2.49362 2.45429,-4.68143 4,-7 0.67913,-6.06737 -0.99861,-9.9481 -3.6875,-15.1875 -0.73638,-1.49641 -1.47074,-2.99382 -2.20313,-4.49219 -0.36029,-0.73057 -0.72058,-1.46115 -1.09179,-2.21387 C 410.21648,131.30802 407.39751,125.31084 406,119 c -0.77203,2.75709 -1.13815,5.24682 -1.18945,8.10669 -0.0251,1.19693 -0.0251,1.19693 -0.0507,2.41804 -0.0136,0.85422 -0.0272,1.70844 -0.0411,2.58855 -0.0184,0.88778 -0.0368,1.77555 -0.0558,2.69023 -0.0587,2.83626 -0.11147,5.67259 -0.16296,8.50899 -0.068,3.72538 -0.14175,7.45058 -0.21875,11.17578 -0.0136,0.84815 -0.0272,1.6963 -0.0411,2.57015 -0.098,4.73445 -0.46426,9.26881 -1.24011,13.94157 -1.62891,0.78906 -1.62891,0.78906 -4,1 -2.19237,-1.46158 -3.99513,-2.87669 -5.9375,-4.625 -0.56848,-0.49492 -1.13695,-0.98984 -1.72266,-1.49976 -4.69574,-4.14821 -9.06895,-8.5875 -13.43408,-13.07763 C 372.41152,147.23233 366.32026,142.58245 360,138 c 0.37512,0.72703 0.75023,1.45406 1.13672,2.20312 2.6254,5.15822 5.13064,10.30441 7.30078,15.67188 1.91105,4.61583 3.84639,9.21294 5.9375,13.75 0.52336,1.16789 1.04672,2.33578 1.58594,3.53906 2.61276,3.63384 4.7271,4.04353 9.03906,4.83594 -1,3 -1,3 -3.80078,4.60547 -1.15887,0.52207 -2.31774,1.04414 -3.51172,1.58203 -1.15113,0.5298 -2.30227,1.05961 -3.48828,1.60547 C 371,187 371,187 367,187 c 1,-2 2,-4 3,-6 0.45189,-4.97081 -0.69754,-7.6509 -3,-12 -0.50138,-1.47179 -0.97918,-2.95174 -1.4375,-4.4375 -1.12897,-3.52803 -2.59134,-6.51311 -4.53125,-9.6875 -1.21401,-2.2073 -2.07813,-4.45665 -2.96875,-6.8125 -3.02079,-8.17339 -3.02079,-8.17339 -8.9375,-14.22266 -2.11254,-0.95593 -2.11254,-0.95593 -5.125,-1.83984 2.45765,-2.81348 5.06279,-4.19315 8.4375,-5.75 0.94746,-0.44859 1.89492,-0.89719 2.87109,-1.35937 2.89874,-0.95924 3.93648,-1.10486 6.69141,0.10937 1.78906,1.3125 1.78906,1.3125 3.625,3 0.70254,0.63937 1.40508,1.27875 2.12891,1.9375 0.74121,0.68062 1.48242,1.36125 2.24609,2.0625 0.7309,0.63937 1.4618,1.27875 2.21484,1.9375 6.21244,5.45784 12.02756,11.25033 17.78345,17.18555 0.61932,0.63099 1.23863,1.26199 1.87671,1.91211 0.5543,0.57113 1.10859,1.14227 1.67969,1.73071 1.38205,1.45058 1.38205,1.45058 3.44531,1.23413 0.95619,-5.71335 1.20948,-11.30311 1.31641,-17.08984 0.0208,-0.94453 0.0416,-1.88905 0.063,-2.8622 0.065,-2.99509 0.12414,-5.99025 0.18312,-8.98546 0.0432,-2.03972 0.0869,-4.07944 0.13086,-6.11914 C 398.8,115.96232 398.90141,110.9812 399,106 c 0.71027,-0.27715 1.42054,-0.5543 2.15234,-0.83984 0.9191,-0.36223 1.83821,-0.72446 2.78516,-1.09766 0.91652,-0.35965 1.83305,-0.7193 2.77734,-1.08984 4.70252,-2.00159 4.70252,-2.00159 6.34766,-2.03516 z"
     style="fill:#090909"
     id="path18" />
  <path
     d="m 99,613 c 0.66,0 1.32,0 2,0 0,2.64 0,5.28 0,8 0.66,0 1.32,0 2,0 0.33,-1.65 0.66,-3.3 1,-5 0.99,0 1.98,0 3,0 -1.05875,3.40313 -2.00902,6.01353 -4,9 -0.20282,6.15212 0.67865,11.74119 4,17 1.64686,1.64686 3.47745,1.28962 5.75,1.375 10.30792,-0.0937 19.60497,-5.12544 28.25,-10.375 -0.74219,3.78125 -0.74219,3.78125 -3.0625,5.75 -0.63938,0.4125 -1.27875,0.825 -1.9375,1.25 1.32,0.66 2.64,1.32 4,2 0,0.66 0,1.32 0,2 -1.28584,0.004 -1.28584,0.004 -2.59766,0.008 -6.82671,0.23089 -11.31273,0.56528 -16.23046,5.51953 -2.08613,2.62156 -2.35559,4.49835 -2.42188,7.78516 -0.0387,1.13888 -0.0387,1.13888 -0.0781,2.30078 0.55302,4.02256 2.01721,6.37033 5.24609,8.87378 2.37174,1.62039 4.77573,3.17095 7.20704,4.70044 1.65103,1.05193 3.2996,2.10773 4.94531,3.16797 1.09465,0.69065 1.09465,0.69065 2.21142,1.39526 C 140,679 140,679 141,681 c -3.34374,-0.55729 -6.03313,-1.35174 -9,-3 0.33,1.98 0.66,3.96 1,6 -3.58358,-2.2696 -4.45745,-4.14361 -6,-8 -3.26313,-2.94734 -5.97702,-3.90528 -10.375,-4.3125 -4.368,0.37655 -5.70736,1.07068 -8.625,4.3125 -2.34452,4.4254 -3.85208,8.99401 -3,14 1.46571,2.50902 3.148,4.76437 5,7 -0.33,0.66 -0.66,1.32 -1,2 -1.65,-0.99 -3.3,-1.98 -5,-3 0,2.64 0,5.28 0,8 -0.99,-0.495 -0.99,-0.495 -2,-1 -1.10448,-3.89773 -1.157,-7.78293 -1.3125,-11.8125 -0.4868,-7.14468 -1.588048,-12.26516 -6.875,-17.25 -4.754797,-1.58493 -9.492052,-0.89478 -14.105713,1.00855 -2.255274,1.16645 -4.453356,2.39589 -6.644287,3.67895 -1.484329,0.85327 -2.972438,1.7 -4.464844,2.53906 -0.64445,0.37592 -1.288901,0.75185 -1.952881,1.13916 C 66.102,682.53316 65.559224,682.7631 65,683 c -0.66,-0.33 -1.32,-0.66 -2,-1 4.75,-4 4.75,-4 7,-4 0,-0.66 0,-1.32 0,-2 -1.32,-0.33 -2.64,-0.66 -4,-1 0,-0.66 0,-1.32 0,-2 0.796641,0.0206 1.593281,0.0412 2.414063,0.0625 6.235076,-0.0343 6.235076,-0.0343 11.71875,-2.62891 2.66899,-3.29433 4.223018,-6.36602 4.554687,-10.62109 C 83.868451,655.2705 82.58145,653.814 79,651 75.762919,649.38146 72.207051,649.65761 68.628906,649.47656 65.718421,648.94896 64.80062,648.28282 63,646 c 2.64,0 5.28,0 8,0 0,-0.66 0,-1.32 0,-2 -0.7425,-0.2475 -1.485,-0.495 -2.25,-0.75 -2.951241,-1.34147 -4.59815,-2.85906 -6.75,-5.25 9.478953,2.7388 9.478953,2.7388 13.8125,4.6875 5.479262,2.16911 11.400622,1.55068 17.1875,1.3125 0.656289,-1.20269 1.299475,-2.41253 1.9375,-3.625 0.359648,-0.67289 0.719297,-1.34578 1.089844,-2.03906 2.263545,-5.43615 2.234839,-11.40153 2.535156,-17.21094 0.06477,-1.17562 0.06477,-1.17562 0.130859,-2.375 C 98.798534,616.83349 98.899679,614.91677 99,613 Z"
     style="fill:#080808"
     id="path20" />
  <path
     d="m 1065,613 c 0.66,0.33 1.32,0.66 2,1 0.625,2.0625 0.625,2.0625 1,4 0.66,-0.99 1.32,-1.98 2,-3 0.66,0 1.32,0 2,0 -0.4773,1.45894 -0.9569,2.91714 -1.4375,4.375 -0.2668,0.81211 -0.5337,1.62422 -0.8086,2.46094 C 1069,624 1069,624 1068,626 c -0.6346,6.21922 1.1268,10.62285 4,16 1.732,1.73199 3.9477,1.29525 6.3125,1.375 8.3682,-0.0499 14.9955,-3.39884 22.25,-7.25 C 1103,635 1103,635 1106,636 c -1.98,1.65 -3.96,3.3 -6,5 1.98,0.33 3.96,0.66 6,1 0,0.66 0,1.32 0,2 -1.3941,-0.0135 -1.3941,-0.0135 -2.8164,-0.0273 -8.561,0.0344 -8.561,0.0344 -15.4961,4.46484 -3.4971,4.21946 -4.1512,6.99821 -3.6875,12.5625 3.8682,7.89758 12.0365,12.12275 19.2148,16.70312 C 1105,679 1105,679 1106,681 c -2.97,-0.99 -5.94,-1.98 -9,-3 0.33,1.98 0.66,3.96 1,6 -2.1526,-2.03435 -3.7751,-4.07679 -5.375,-6.5625 -2.2322,-3.13967 -3.7308,-4.62243 -7.625,-5.4375 -2.9229,-0.4209 -4.9709,-0.33657 -8,0 -4.3896,4.04305 -6.0807,8.58032 -6.375,14.4375 0.078,4.66258 1.4535,7.0019 4.375,10.5625 -0.33,0.66 -0.66,1.32 -1,2 -1.32,-0.99 -2.64,-1.98 -4,-3 -0.33,2.64 -0.66,5.28 -1,8 -0.99,-0.495 -0.99,-0.495 -2,-1 -0.2344,-2.32611 -0.361,-4.66337 -0.4375,-7 -0.4132,-8.4903 -1.4465,-15.68669 -7.5625,-22 -3.0929,-1.54647 -5.5726,-1.24181 -9,-1 -2.535,1.01233 -4.754,2.01754 -7.125,3.3125 -0.8914,0.4631 -0.8914,0.4631 -1.8008,0.93555 -2.6888,1.40968 -5.2747,2.88307 -7.8164,4.54492 -0.7451,0.39832 -1.4901,0.79664 -2.2578,1.20703 -0.99,-0.33 -1.98,-0.66 -3,-1 0.9694,-0.61875 1.9388,-1.2375 2.9375,-1.875 3.0909,-1.78179 3.0909,-1.78179 4.0625,-4.125 -1.32,-0.33 -2.64,-0.66 -4,-1 0,-0.66 0,-1.32 0,-2 0.8198,-0.0258 1.6397,-0.0516 2.4844,-0.0781 1.6165,-0.0851 1.6165,-0.0851 3.2656,-0.17187 1.0673,-0.0464 2.1347,-0.0928 3.2344,-0.14063 3.5837,-0.72417 4.7542,-1.79838 7.0156,-4.60937 2.174,-4.02184 2.5562,-7.47091 2,-12 -1.7754,-3.78218 -1.7754,-3.78218 -5,-6 -3.6685,-0.60648 -7.2017,-0.81281 -10.918,-0.89453 C 1030,649 1030,649 1028,648 c 0,-0.66 0,-1.32 0,-2 2.64,0 5.28,0 8,0 -2.6234,-2.91489 -5.7182,-4.88504 -9,-7 4.0496,-1.34987 6.2082,0.25205 9.875,1.9375 6.8387,2.93829 13.6556,4.78449 21.125,3.0625 4.5496,-4.03722 5.019,-10.92424 5.3789,-16.68359 0.069,-1.58431 0.1304,-3.16899 0.1836,-4.75391 0.314,-8.43904 0.314,-8.43904 1.4375,-9.5625 z"
     style="fill:#090909"
     id="path22" />
  <path
     d="m 287.69531,209.36328 c 4.23267,3.00591 7.00264,7.03263 9.30469,11.63672 0.98379,8.09517 -0.38528,14.26664 -5,21 -4.23386,4.97329 -9.90494,7.27134 -16.19532,8.39062 -5.64086,0.4324 -9.21853,-1.21425 -13.72265,-4.53515 -5.1426,-4.58299 -8.69902,-9.34451 -9.45703,-16.29297 0.0595,-6.40518 2.92482,-13.35635 6.79297,-18.41797 C 261,210 261,210 265,210 c 0,-0.66 0,-1.32 0,-2 8.24617,-3.38305 14.91474,-2.86635 22.69531,1.36328 z"
     style="fill:#0b0b0b"
     id="path24" />
  <path
     d="m 572,92 c 6.54673,2.611679 11.39282,7.383846 14.25,13.8125 1.45811,6.19696 1.13335,11.22913 -1.25,17.1875 -0.66,0 -1.32,0 -2,0 -0.23719,0.75797 -0.47438,1.51594 -0.71875,2.29688 -1.50071,3.16612 -2.8305,4.13285 -5.78125,5.95312 -0.79406,0.50016 -1.58813,1.00031 -2.40625,1.51562 C 569.16243,135.6729 564.65468,135.68009 559,135 c -6.91993,-2.79816 -12.67723,-8.3638 -16,-15 -0.77805,-5.99308 -0.95982,-11.88839 1.5625,-17.4375 0.80438,-0.84562 1.60875,-1.69125 2.4375,-2.5625 0.86818,-0.924258 0.86818,-0.924258 1.75391,-1.867188 C 555.50005,91.119072 562.52087,90.64482 572,92 Z"
     style="fill:#090909"
     id="path26" />
  <path
     d="M 662.05078,97.410156 C 662.69402,97.934804 663.33726,98.459453 664,99 c 0,0.66 0,1.32 0,2 0.59812,0.0619 1.19625,0.12375 1.8125,0.1875 3.09845,1.15085 3.74067,2.91884 5.1875,5.8125 1.84421,5.53262 1.78341,11.25496 1,17 -1.82801,3.32647 -4.14311,5.54105 -7,8 -0.92239,0.97377 -1.83989,1.95224 -2.75,2.9375 -3.89282,3.56842 -7.35866,3.17159 -12.4375,3.125 -1.27231,-0.009 -2.54461,-0.018 -3.85547,-0.0273 C 644.4933,138.01776 644.4933,138.01776 643,138 c -0.33,-0.66 -0.66,-1.32 -1,-2 -0.70125,-0.20625 -1.4025,-0.4125 -2.125,-0.625 -5.32714,-2.54777 -9.66378,-7.89959 -11.875,-13.375 -1.26915,-7.61487 0.66131,-13.7342 5,-20 6.15159,-8.148013 20.20382,-8.679156 29.05078,-4.589844 z"
     style="fill:#0b0b0b"
     id="path28" />
  <path
     d="m 708,104 c 2.74971,1.05405 4.596,2.25164 7,4 0,0.66 0,1.32 0,2 0.81984,-0.0232 1.63969,-0.0464 2.48437,-0.0703 1.61649,-0.0271 1.61649,-0.0271 3.26563,-0.0547 1.60102,-0.0348 1.60102,-0.0348 3.23437,-0.0703 2.94033,0.19043 4.53925,0.66861 7.01563,2.19531 0,1.65 0,3.3 0,5 -1.32,0.33 -2.64,0.66 -4,1 0,-0.66 0,-1.32 0,-2 -2.64,0 -5.28,0 -8,0 -0.23783,1.10408 -0.23783,1.10408 -0.48047,2.23047 C 717.07597,124.2679 716.04112,128.21916 711,132 c -2.76565,0.92188 -4.38284,1.11785 -7.23047,1.09766 -0.80244,-0.003 -1.60488,-0.006 -2.43164,-0.01 -1.25007,-0.0126 -1.25007,-0.0126 -2.52539,-0.0254 -0.84498,-0.004 -1.68996,-0.009 -2.56055,-0.0137 -2.08401,-0.0118 -4.16799,-0.0297 -6.25195,-0.0488 3.71151,4.39148 8.17189,5.81043 13.42383,7.62305 4.5739,1.68367 7.44791,3.64058 10.57617,7.37695 1.35416,4.06249 1.54273,7.75223 1,12 -2.92683,5.46341 -2.92683,5.46341 -6,7 -11.50508,0.71833 -20.20636,0.62546 -29.9375,-6 -2.93559,-2.84663 -4.00106,-4.64828 -4.1875,-8.75 0.0619,-1.11375 0.0619,-1.11375 0.125,-2.25 0.66,0 1.32,0 2,0 0.33,-1.32 0.66,-2.64 1,-4 2.31,0 4.62,0 7,0 0,4 0,4 -1,5 -0.14636,3.36629 -0.0719,5.7842 1,9 2.42383,1.16953 2.42383,1.16953 5,2 0.66,0.33 1.32,0.66 2,1 6.06354,0.56709 10.72108,0.33405 16,-3 0.83939,-2.7393 0.83939,-2.7393 0,-6 -3.0013,-2.57544 -6.48137,-4.22979 -10,-6 -0.90661,-0.45971 -0.90661,-0.45971 -1.83154,-0.92871 -3.10889,-1.57466 -6.22731,-3.12634 -9.35987,-4.65332 C 684,141 684,141 683,140 c -0.4375,-2.75 -0.4375,-2.75 0,-6 1.81993,-2.16152 3.61963,-3.38135 6,-5 0.66,0 1.32,0 2,0 -0.495,-0.99 -0.99,-1.98 -1.5,-3 -1.66862,-3.98703 -2.38408,-7.72559 -1.5,-12 4.38887,-9.53445 9.82293,-11.12787 20,-10 z"
     style="fill:#0b0b0b"
     id="path30" />
  <path
     d="m 942,208 c -0.46614,5.36067 -1.94888,9.70118 -4.02344,14.65625 -1.39514,3.34833 -2.47869,6.77809 -3.57715,10.23242 -1.34532,4.13975 -2.80381,8.19912 -4.44238,12.23242 -0.35127,0.87334 -0.70254,1.74668 -1.06445,2.64649 -0.72036,1.7807 -1.45217,3.55681 -2.19531,5.32812 -2.93935,7.40019 -3.87536,14.15002 -1.69727,21.9043 -4.16742,-1.39162 -6.79417,-3.33208 -10,-6.3125 -0.86367,-0.8018 -1.72734,-1.60359 -2.61719,-2.42969 C 911.59648,265.51273 910.81016,264.76766 910,264 c -0.58008,-0.53883 -1.16016,-1.07766 -1.75781,-1.63281 C 907.11496,261.29149 906.04811,260.15292 905,259 c 0,-0.66 0,-1.32 0,-2 0.99,0 1.98,0 3,0 0,0.66 0,1.32 0,2 4.43937,-1.35647 6.41569,-3.16809 9,-7 1.99217,-3.7946 2.26583,-5.91181 1,-10 -1.9411,-2.46098 -1.9411,-2.46098 -4.375,-4.6875 -0.79148,-0.76699 -1.58297,-1.53398 -2.39844,-2.32422 -3.72276,-3.39897 -3.72276,-3.39897 -8.60156,-3.80078 -3.50924,0.78655 -5.65588,1.86136 -8.625,3.8125 -0.66,0 -1.32,0 -2,0 -0.33,2.97 -0.66,5.94 -1,9 -3.98184,-0.99546 -5.27404,-1.76277 -8.25,-4.375 -0.70641,-0.60586 -1.41281,-1.21172 -2.14063,-1.83594 C 879,236 879,236 879,233 c 0.55687,-0.0258 1.11375,-0.0516 1.6875,-0.0781 4.96583,-0.36908 8.64351,-1.28771 13,-3.66797 2.97216,-1.61159 6.00522,-3.06057 9.0625,-4.5039 1.08797,-0.52079 2.17594,-1.04157 3.29687,-1.57813 C 909,222 909,222 913,222 c 0.33,-0.99 0.66,-1.98 1,-3 2.4375,-1.375 2.4375,-1.375 6,-3 1.64785,-0.82934 3.29354,-1.66298 4.9375,-2.5 11.99364,-5.96081 11.99364,-5.96081 17.0625,-5.5 z"
     style="fill:#080808"
     id="path32" />
  <path
     d="m 72,507 c 1.916352,-0.0542 3.833149,-0.0929 5.75,-0.125 1.601016,-0.0348 1.601016,-0.0348 3.234375,-0.0703 C 83.924701,506.99512 85.523619,507.4733 88,509 c -0.0625,1.8125 -0.0625,1.8125 -1,4 -1.676561,0.7561 -3.360111,1.50227 -5.082031,2.14844 C 78.262105,516.77161 74.805536,519.38893 73,523 c -0.654262,7.66881 -0.983096,13.89571 4,20 7.460332,6.95866 14.986208,8.36007 24.9375,8.375 0.85529,0.0245 1.71059,0.049 2.5918,0.0742 5.94666,0.0272 10.53612,-1.01279 15.4707,-4.44922 1.95335,-2.3379 1.95335,-2.3379 3,-5 0.34418,-0.76828 0.68836,-1.53656 1.04297,-2.32813 1.84504,-5.15105 2.02926,-10.83332 0.082,-15.98828 C 121.2999,518.78614 117.74793,515.97909 113,513 c 0.33,-0.99 0.66,-1.98 1,-3 6.94171,0.33056 12.79081,0.75429 19,4 0,0.33 0,0.66 0,1 -1.65,0 -3.3,0 -5,0 0.14437,0.55945 0.28875,1.11891 0.4375,1.69531 2.80289,12.10694 2.85294,23.48996 -3.1875,34.49219 C 121.02732,556.46585 115.81523,561.57575 109,563 96.831346,564.14745 86.185223,562.85709 76.5625,554.9375 69.921,548.39225 66.758096,541.725 66.625,532.375 66.797872,527.20213 66.797872,527.20213 68,526 c 0.103125,-1.0725 0.20625,-2.145 0.3125,-3.25 C 69,519 69,519 71.125,516.5 c 2.291149,-2.48971 2.291149,-2.48971 1.625,-6.3125 C 72.37875,508.60969 72.37875,508.60969 72,507 Z"
     style="fill:#0b0b0b"
     id="path34" />
  <path
     d="m 421,1019 c 2.66696,1.0374 4.5844,2.3896 7,4 2.12136,0.6684 2.12136,0.6684 4.3125,1.125 C 436,1025 436,1025 438,1027 c -0.375,2.625 -0.375,2.625 -1,5 -2.66667,-0.6667 -5.33333,-1.3333 -8,-2 -0.30293,0.5311 -0.60586,1.0622 -0.91797,1.6094 -0.41894,0.7064 -0.83789,1.4128 -1.26953,2.1406 -0.40605,0.6961 -0.81211,1.3922 -1.23047,2.1094 -2.35834,3.191 -4.53914,5.7237 -8.57739,6.5478 -2.27849,0.2083 -4.52969,0.3006 -6.81714,0.3428 -1.18239,0.044 -1.18239,0.044 -2.38867,0.09 -1.9324,0.07 -3.86562,0.1176 -5.79883,0.1602 -0.33,0.99 -0.66,1.98 -1,3 0.57492,0.2591 1.14984,0.5182 1.74219,0.7852 2.44151,1.3136 4.30762,2.8178 6.38281,4.6523 0.6832,0.5968 1.36641,1.1937 2.07031,1.8086 2.27437,2.2104 3.67839,3.954 4.17969,7.1289 -0.49892,3.4925 -1.98348,5.0928 -4.375,7.625 -4.68902,2.3445 -10.91552,1.4871 -16,1 -5.50532,-1.8608 -10.0271,-4.9213 -13,-10 -1.05345,-3.4413 -1.42672,-5.0991 0.125,-8.375 C 384,1049 384,1049 389,1049 c -0.33,3.63 -0.66,7.26 -1,11 4.66509,3.2137 7.86532,5.1438 13.5625,5.125 1.17756,0 1.17756,0 2.37891,0.01 2.12298,-0 2.12298,-0 4.05859,-1.1328 -0.48268,-4.3442 -1.65473,-6.2123 -5,-9 -0.78375,-0.4538 -1.5675,-0.9075 -2.375,-1.375 -3.3745,-2.089 -6.31402,-4.3634 -8.625,-7.625 0,-3.5059 0.52373,-4.5237 3,-7 2.625,-0.125 2.625,-0.125 5,0 0.0258,-0.8804 0.0516,-1.7609 0.0781,-2.668 0.0567,-1.1614 0.11344,-2.3229 0.17187,-3.5195 0.0464,-1.1486 0.0928,-2.2971 0.14063,-3.4805 0.70882,-3.8758 1.88616,-5.5342 4.60937,-8.332 4.88037,-3.2536 10.29352,-2.581 16,-2 z"
     style="fill:#0d0d0d"
     id="path36" />
  <path
     d="m 994.625,303.625 c 4.5304,0.50338 7.1465,2.20935 10.375,5.375 1.5392,2.26358 2.7344,4.56255 4,7 0.66,0.33 1.32,0.66 2,1 -0.7073,8.34597 -2.898,12.33429 -9.2813,17.76562 C 1000,336 1000,336 997,337 c -0.33,0.66 -0.66,1.32 -1,2 -1.75781,0.97656 -3.51563,1.95312 -5.27344,2.92969 -2.25077,1.39527 -3.53995,2.69709 -4.72656,5.07031 0.16667,2.08333 0.16667,2.08333 1,4 0.33,0.99 0.66,1.98 1,3 -3.51865,-0.3016 -5.00757,-1.00606 -7.8125,-3.25 C 978,348 978,348 977.625,345.5 c 0.3786,-2.52397 0.80624,-5.01167 1.375,-7.5 -1.21687,-0.20625 -2.43375,-0.4125 -3.6875,-0.625 -4.84448,-1.18535 -6.53044,-3.32837 -9.3125,-7.375 -1.22976,-2.45952 -1.01468,-3.78257 -0.75,-6.5 0.10055,-1.19109 0.10055,-1.19109 0.20312,-2.40625 C 966,319 966,319 969,317 c 9.33874,-1.36217 15.53829,0.43973 23,6 2.81708,2.31538 2.81708,2.31538 6,1.8125 3.7061,-0.977 3.7061,-0.977 6,-3.8125 0.6667,-3 0.6667,-3 0,-6 -3.7072,-3.24377 -8.29892,-3.96417 -13,-5 -0.0427,-1.66612 -0.0406,-3.33383 0,-5 1,-1 1,-1 3.625,-1.375 z"
     style="fill:#0b0b0b"
     id="path38" />
  <path
     d="m 822.5,149.8125 c 0.79406,-0.0142 1.58812,-0.0284 2.40625,-0.043 C 827,150 827,150 829,152 c 0.76312,0.26812 1.52625,0.53625 2.3125,0.8125 3.34043,1.476 5.22348,3.5237 7.6875,6.1875 0.66,0.66 1.32,1.32 2,2 0.997,6.0097 -1.90654,10.26057 -4.75,15.3125 -3.37946,6.12527 -6.5174,12.24347 -9.25,18.6875 0.99,0 1.98,0 3,0 0,1.32 0,2.64 0,4 -4.03578,0.46928 -5.58724,0.29859 -8.9375,-2.125 C 819,194 819,194 819.1875,190.6875 819.58969,189.35719 819.58969,189.35719 820,188 c -0.99,0.495 -0.99,0.495 -2,1 -3.75396,1.25132 -7.11742,1.74129 -11,1 -3.33044,-1.71956 -6.29961,-3.59922 -8,-7 -0.67691,-6.88191 -0.67691,-6.88191 1.66016,-10.74219 4.47305,-4.13368 11.5119,-2.75998 17.15234,-2.57031 1.26521,0.0226 2.53043,0.0451 3.83398,0.0684 3.11905,0.0588 6.23568,0.14103 9.35352,0.24414 0.22227,-1.76914 0.42734,-3.54044 0.625,-5.3125 0.11602,-0.98613 0.23203,-1.97227 0.35156,-2.98828 0.27821,-2.92579 0.27821,-2.92579 -1.97656,-5.69922 -4.81222,-0.46271 -8.5203,0.25182 -13,2 -0.99,-0.99 -1.98,-1.98 -3,-3 2.06396,-4.5702 3.56551,-5.14745 8.5,-5.1875 z"
     style="fill:#090909"
     id="path40" />
  <path
     d="m 294.31641,947.84766 c 2.16384,1.48105 3.90099,3.23769 5.68359,5.15234 0.99,0.33 1.98,0.66 3,1 -0.0859,2.25391 -0.0859,2.25391 -1,5 -2.22277,1.54641 -4.22906,2.73785 -6.625,3.9375 -9.53178,4.73365 -9.53178,4.73365 -15.375,13.0625 2.31,0 4.62,0 7,0 0,0.99 0,1.98 0,3 -4.95,0 -9.9,0 -15,0 0,-7 0,-7 1,-9 -0.9958,0.0522 -0.9958,0.0522 -2.01171,0.10547 -4.02133,0.12328 -7.24438,0.1678 -11.05079,-1.23047 C 258,967 258,967 256.8125,964.3125 c 0.31813,-5.62027 3.79993,-9.15813 7.86719,-12.82812 8.8527,-6.77211 19.5632,-9.33221 29.63672,-3.63672 z"
     style="fill:#0d0d0d"
     id="path42" />
  <path
     d="m 956,254 c 3.82097,0.53069 6.06171,1.49702 9,4 -0.33,2.31 -0.66,4.62 -1,7 0.56848,0.21914 1.13695,0.43828 1.72266,0.66406 6.23999,2.56267 12.42557,5.30949 15.375,11.72266 0.73996,2.19236 1.37676,4.3608 1.90234,6.61328 -0.99,0.495 -0.99,0.495 -2,1 -0.43828,0.91781 -0.87656,1.83562 -1.32813,2.78125 -1.77675,3.42067 -3.51372,5.22605 -6.42187,7.71875 -0.88172,0.76828 -1.76344,1.53656 -2.67188,2.32812 -1.56165,1.31558 -3.1322,2.62081 -4.71875,3.90625 -3.42939,2.79539 -5.82251,4.77257 -6.85937,9.26563 -0.16798,2.70887 -0.16798,2.70887 0,5 -5.8915,-2.5831 -10.28113,-8.24239 -13,-14 0.33,-0.99 0.66,-1.98 1,-3 0.66,0.66 1.32,1.32 2,2 2.06874,0.64252 2.06874,0.64252 4,1 0.33,-0.99 0.66,-1.98 1,-3 1.63004,-0.88294 3.26069,-1.76475 4.89453,-2.64063 C 964.82621,292.52965 970.93715,286.41741 974,280 c -0.57601,-3.02406 -1.83772,-4.74982 -3.5,-7.3125 -3.99377,-2.6958 -7.83616,-2.3631 -12.5,-1.6875 -7.13993,2.72616 -13.4017,8.99357 -18,15 -0.89208,3.71303 -0.89208,3.71303 -1,7 -3.41323,-1.13775 -3.92,-1.90303 -5.9375,-4.75 -1.75914,-2.44788 -3.51491,-4.79765 -5.4375,-7.125 C 926,279 926,279 926,277 c 1.63969,0.52594 1.63969,0.52594 3.3125,1.0625 3.30474,0.42698 4.51731,0.0442 7.38672,-1.75391 2.85445,-2.35283 5.58677,-4.79547 8.30078,-7.30859 1.51844,-1.29449 3.03898,-2.58651 4.5625,-3.875 3.85518,-3.31818 5.616,-6.05908 6.4375,-11.125 z"
     style="fill:#080808"
     id="path44" />
  <path
     d="m 671,1044 c 0.99,0.66 1.98,1.32 3,2 1.53214,8.5997 -0.79372,18.416 -2,27 0.99,0 1.98,0 3,0 0.495,-1.485 0.495,-1.485 1,-3 2.0625,-0.6875 2.0625,-0.6875 4,-1 -1.74826,4.4738 -3.30261,8.009 -7.5625,10.5 C 669,1081 669,1081 666,1081 c -3.40896,-6.8179 -0.95376,-17.4528 0.55469,-24.6445 0.532,-2.8141 0.5997,-5.4992 0.44531,-8.3555 -4.52197,1.5073 -5.31127,4.8136 -7.37036,8.9253 -2.57232,5.4022 -4.07989,10.8792 -5.21143,16.7429 -0.87505,4.2435 -1.8958,6.7182 -5.41821,9.3318 -0.99,0 -1.98,0 -3,0 -0.31525,-6.7877 0.87614,-13.2589 2,-19.9375 0.19078,-1.1608 0.38156,-2.3216 0.57812,-3.5176 0.469,-2.8491 0.9431,-5.6974 1.42188,-8.5449 -6.70468,3.1349 -8.37955,6.2617 -11,13 -0.33,0.33 -0.66,0.66 -1,1 -0.30073,1.6406 -0.56496,3.288 -0.8125,4.9375 -0.98194,5.7268 -2.82411,10.7735 -5.1875,16.0625 -0.99,0 -1.98,0 -3,0 -3.10181,-6.2036 -0.37284,-13.8621 1.33203,-20.1133 0.8709,-3.7637 0.88968,-7.0438 0.66797,-10.8867 -0.99,-0.33 -1.98,-0.66 -3,-1 0,0.99 0,1.98 0,3 -0.66,0 -1.32,0 -2,0 0.35013,-2.5909 0.73771,-4.5774 2.125,-6.8125 2.88368,-1.8263 5.55246,-1.3756 8.875,-1.1875 0.12375,0.9694 0.2475,1.9388 0.375,2.9375 0.20625,1.0106 0.4125,2.0213 0.625,3.0625 0.66,0.33 1.32,0.66 2,1 0.22687,-0.7219 0.45375,-1.4437 0.6875,-2.1875 1.62129,-3.4742 3.31173,-5.4255 6.3125,-7.8125 3.125,-0.5625 3.125,-0.5625 6,0 1.625,1.9375 1.625,1.9375 3,4 2.09416,0.7962 2.09416,0.7962 4,1 0.26813,-0.5981 0.53625,-1.1962 0.8125,-1.8125 2.63982,-4.8628 4.57407,-5.7722 10.1875,-5.1875 z"
     style="fill:#0a0a0a"
     id="path46" />
  <path
     d="m 1038,366 c 0.66,0 1.32,0 2,0 0.8438,2.05824 1.6746,4.1218 2.5,6.1875 0.4641,1.14855 0.9281,2.29711 1.4063,3.48047 1.0018,3.05193 1.3324,5.16318 1.0937,8.33203 -0.5943,0.0168 -1.1885,0.0335 -1.8008,0.0508 -8.9617,0.9338 -13.6581,6.3282 -19.1992,12.94922 -1.32,1.98 -2.64,3.96 -4,6 9.24,0 18.48,0 28,0 0.33,-2.31 0.66,-4.62 1,-7 0.99,0 1.98,0 3,0 3.3756,3.64563 4.9384,7.36669 5.125,12.3125 -0.041,0.88688 -0.082,1.77375 -0.125,2.6875 -1.485,-0.495 -1.485,-0.495 -3,-1 -1.6293,-0.11003 -3.2625,-0.16608 -4.8953,-0.18945 -0.995,-0.0167 -1.99,-0.0334 -3.0151,-0.0507 -1.6125,-0.0204 -1.6125,-0.0204 -3.2576,-0.0411 -1.1087,-0.0184 -2.2175,-0.0368 -3.3599,-0.0558 -3.5532,-0.0588 -7.1063,-0.11155 -10.6596,-0.16296 -4.6603,-0.0679 -9.3204,-0.14171 -13.9805,-0.21875 -1.0648,-0.0136 -2.1297,-0.0272 -3.2268,-0.0411 -19.41594,-0.32112 -19.41594,-0.32112 -25.5427,-6.05261 -1.37802,-2.83711 -1.2747,-5.07527 -1.0625,-8.1875 1.77344,-0.71094 1.77344,-0.71094 4,-1 1.85156,1.39844 1.85156,1.39844 3.625,3.375 3.14763,3.56914 3.14763,3.56914 7.582,4.89844 5.6074,0.28876 5.6074,0.28876 10.418,-2.27344 0.7838,-0.99 1.5675,-1.98 2.375,-3 1.2403,-1.21827 2.4914,-2.42563 3.75,-3.625 7.3805,-7.39439 13.655,-15.56977 19.25,-24.375 0.66,-0.99 1.32,-1.98 2,-3 z"
     style="fill:#0e0e0e"
     id="path48" />
  <path
     d="m 128.5,405.75 c 0.75281,-0.005 1.50562,-0.0103 2.28125,-0.0156 2.47416,0.29621 4.03221,1.10267 6.21875,2.26563 1.99436,0.48251 3.98906,0.96385 5.98828,1.42578 C 145,410 145,410 148.0625,411.625 c 4.96685,2.32491 9.72471,1.63871 14.9375,0.375 0.495,0.99 0.495,0.99 1,2 -0.66,0.33 -1.32,0.66 -2,1 -0.78624,2.16072 -1.48201,4.35491 -2.125,6.5625 -0.3532,1.19754 -0.70641,2.39508 -1.07031,3.62891 -0.26555,0.92683 -0.5311,1.85367 -0.80469,2.80859 -0.66,0 -1.32,0 -2,0 -0.47438,-0.72188 -0.94875,-1.44375 -1.4375,-2.1875 -6.67284,-7.32385 -18.47077,-9.92643 -28,-11.3125 -2.73757,0.31882 -2.73757,0.31882 -4.9375,2.5 -2.20224,4.06567 -2.07611,6.41369 -1.625,11 0.66,0.66 1.32,1.32 2,2 0,0.99 0,1.98 0,3 0.67418,0.26555 1.34836,0.53109 2.04297,0.80469 2.15994,0.8731 4.30681,1.77875 6.44531,2.70312 1.27463,0.53932 2.54937,1.07838 3.82422,1.61719 0.62584,0.27715 1.25168,0.5543 1.89648,0.83984 4.79546,1.99688 8.6023,2.30007 13.79102,2.03516 0.33,-0.99 0.66,-1.98 1,-3 0.66,0 1.32,0 2,0 0.6964,7.42828 -3.28958,13.85862 -7,20 -2,-1 -2,-1 -3.25,-4.375 -1.23084,-3.02452 -1.6549,-3.56372 -4.5625,-5.4375 C 135.13854,447.05161 132.10464,445.974 129,445 c -0.70383,-0.26039 -1.40766,-0.52078 -2.13281,-0.78906 C 121.03991,442.09731 116.07645,440.97452 110,443 c 0,-3.3 0,-6.6 0,-10 1.98,-0.66 3.96,-1.32 6,-2 -0.0464,-1.07379 -0.0928,-2.14758 -0.14062,-3.25391 C 115.42016,413.34315 115.42016,413.34315 120,408 c 2.90251,-1.79272 5.10658,-2.27324 8.5,-2.25 z"
     style="fill:#090909"
     id="path50" />
  <path
     d="m 173,326 c 3.0625,1.5 3.0625,1.5 5,3 -0.54724,3.37463 -1.0549,5.08235 -3,8 -0.66,0 -1.32,0 -2,0 0.0722,0.71543 0.14437,1.43086 0.21875,2.16797 -0.27966,3.62057 -1.56198,5.256 -3.71875,8.14453 -0.97453,1.32451 -0.97453,1.32451 -1.96875,2.67578 -0.75797,0.9958 -0.75797,0.9958 -1.53125,2.01172 1.38378,3.13181 1.38378,3.13181 4,5.25 5.38427,1.34607 10.74179,1.66289 15.9375,-0.4375 3.11067,-2.73362 4.91354,-4.88572 5.24219,-9.13672 0.007,-2.23407 -0.0485,-4.44589 -0.17969,-6.67578 1.65,0 3.3,0 5,0 0.0539,1.62464 0.0928,3.24978 0.125,4.875 0.0232,0.90492 0.0464,1.80984 0.0703,2.74219 C 196,351 196,351 194,353 c -0.26813,0.9075 -0.53625,1.815 -0.8125,2.75 -2.01197,5.50646 -5.00692,8.84247 -10.0625,11.625 -4.79666,2.12091 -8.54314,2.59268 -13.57422,0.70703 C 164.02391,365.52926 159.83646,362.7451 156,358 c 0,-1.32 0,-2.64 0,-4 -0.66,0 -1.32,0 -2,0 -1.48521,-2.97041 -1.17058,-5.69764 -1.1875,-9 -0.0142,-1.25813 -0.0284,-2.51625 -0.043,-3.8125 C 153,338 153,338 155,336 c 0.22687,-0.76313 0.45375,-1.52625 0.6875,-2.3125 3.43589,-7.03539 9.90387,-9.0169 17.3125,-7.6875 z"
     style="fill:#0d0d0d"
     id="path52" />
  <path
     d="m 539,1047 c 3.88631,2.0926 6.54756,4.3213 9,8 1.11701,7.6794 -1.7245,13.6691 -6,20 -5.46844,5.3677 -10.05537,8.4089 -17.73828,8.3594 -3.58693,-0.57 -5.13011,-2.5617 -7.26172,-5.3594 -2.34841,-4.6968 -1.62627,-10.7889 -0.23438,-15.7031 C 520.49536,1053.7342 529.22449,1045.8933 539,1047 Z"
     style="fill:#0a0a0a"
     id="path54" />
  <path
     d="m 572,1051 c 0.33,1.65 0.66,3.3 1,5 2.65649,-0.9593 4.72621,-1.7627 6.875,-3.625 3.15022,-2.0384 5.46547,-1.8408 9.125,-1.375 2.33131,2.2536 2.97072,3.9122 4,7 0.49629,-0.5053 0.99258,-1.0106 1.50391,-1.5312 5.57913,-5.3357 5.57913,-5.3357 10.37109,-6.0313 C 608,1051 608,1051 610,1053 c 0.445,5.4512 -0.287,10.8081 -2,16 -0.66,0.66 -1.32,1.32 -2,2 -0.46006,2.2025 -0.46006,2.2025 -0.625,4.625 -0.0748,0.8173 -0.14953,1.6345 -0.22656,2.4766 -0.049,0.6264 -0.098,1.2529 -0.14844,1.8984 0.76312,-0.4744 1.52625,-0.9487 2.3125,-1.4375 C 610,1077 610,1077 613,1076 c -2.00844,4.9298 -5.64105,8.094 -10,11 -2.625,-0.25 -2.625,-0.25 -5,-1 -1.56354,-3.1271 -1.39959,-6.5798 -1,-10 0.66,-0.99 1.32,-1.98 2,-3 0.71366,-2.3194 1.37473,-4.6552 2,-7 0.3723,-1.3133 0.74719,-2.6258 1.125,-3.9375 0.28875,-1.0106 0.5775,-2.0212 0.875,-3.0625 0.66,0 1.32,0 2,0 -0.495,-1.98 -0.495,-1.98 -1,-4 -5.40115,0.841 -7.88632,4.8194 -11,9 -2.94098,4.778 -4.52547,9.5934 -6,15 -0.80533,2.5863 -1.69213,4.578 -3,7 -2.625,1 -2.625,1 -5,1 -0.495,-0.495 -0.495,-0.495 -1,-1 0.37396,-5.516 1.38534,-9.0844 4,-14 2.08952,-5.9203 2.57272,-11.7819 3,-18 -4.27609,2.5657 -6.63459,4.624 -9,9 -0.99,0.495 -0.99,0.495 -2,1 -1.31202,3.2501 -2.47383,6.5211 -3.61328,9.834 -1.62083,4.5475 -3.28804,8.4252 -6.38672,12.166 -1.32,0 -2.64,0 -4,0 0.39178,-5.9578 1.46511,-10.5246 4,-16 1.65699,-5.2634 2.85066,-10.6079 4,-16 -2.81939,2.2098 -5.53059,4.4006 -8,7 0.29802,-3.4769 1.01176,-5.0151 3.1875,-7.8125 3.27129,-2.5443 4.77365,-2.6571 8.8125,-2.1875 z"
     style="fill:#0b0b0b"
     id="path56" />
  <path
     d="m 116,458 c 2.7003,2.26476 2.96213,3.62133 3.3125,7.125 C 119,468 119,468 117,470 c -0.64776,2.18908 -0.64776,2.18908 -1.0625,4.6875 -0.16242,0.88945 -0.32484,1.77891 -0.49219,2.69531 -0.14695,0.86367 -0.2939,1.72735 -0.44531,2.61719 -0.12633,0.7193 -0.25266,1.43859 -0.38281,2.17969 -0.25878,1.59908 -0.44583,3.20951 -0.61719,4.82031 1.77715,1.77715 4.28271,1.2145 6.6875,1.25 4.8445,-0.0575 8.35085,-0.20258 12.3125,-3.25 4.32957,-5.48412 3.2655,-12.37229 3,-19 3,1 3,1 4.16406,3.23047 1.82101,6.03315 1.81667,12.43846 -0.85156,18.20703 -1.91573,3.31698 -4.11821,5.40636 -7.3125,7.5625 -0.57234,0.52078 -1.14469,1.04156 -1.73438,1.57812 C 125.52343,499.55426 119.37949,498.53071 114,498 c -6.3342,-1.67318 -10.27713,-5.76995 -14,-11 -1.61283,-3.22566 -1.267871,-6.70941 -1.3125,-10.25 -0.029,-0.75152 -0.05801,-1.50305 -0.08789,-2.27734 C 98.539316,469.15758 99.500463,466.22227 103,462 c 4.3084,-3.63821 7.35806,-4.85161 13,-4 z"
     style="fill:#0c0c0c"
     id="path58" />
  <path
     d="m 481,104 c -0.45737,2.00022 -0.91595,4.00017 -1.375,6 -0.38285,1.67063 -0.38285,1.67063 -0.77344,3.375 -0.55588,2.36633 -1.15446,4.72316 -1.80078,7.06641 -1.8658,7.40789 -2.70998,15.09217 -3.79809,22.64721 C 470.25756,163.77086 470.25756,163.77086 465,171 c -3.22792,2.15194 -4.28401,2.20086 -8,2 -0.33,-1.65 -0.66,-3.3 -1,-5 0.5659,-0.48211 1.1318,-0.96422 1.71484,-1.46094 0.73348,-0.63164 1.46696,-1.26328 2.22266,-1.91406 0.7309,-0.62648 1.4618,-1.25297 2.21484,-1.89844 2.80456,-2.62074 3.09228,-4.55428 3.28516,-8.28906 -0.15298,-9.70742 -7.70934,-16.08153 -13.98047,-22.78516 -2.15535,-2.32668 -4.18594,-4.71 -6.20703,-7.15234 -2.72174,-3.15489 -5.31419,-4.96407 -9.25,-6.5 1.36984,-3.16116 1.98906,-3.99271 5,-6 4.3307,-1.23734 8.53383,-1.0757 13,-1 -0.33,0.66 -0.66,1.32 -1,2 -0.3334,2.95805 -0.3334,2.95805 0,6 1.26974,1.5211 1.26974,1.5211 3,3 0.92326,1.64867 1.84467,3.29845 2.75,4.95703 1.99785,3.26524 4.43664,6.16784 6.85937,9.125 C 467,138 467,138 467,140 c 0.66,0 1.32,0 2,0 1.24844,-10.03211 2.35762,-19.8673 2,-30 -1.32,-0.66 -2.64,-1.32 -4,-2 3.63485,-5.28705 8.20354,-4.39823 14,-4 z"
     style="fill:#0a0a0a"
     id="path60" />
  <path
     d="M 277.17969,212.52344 C 283.725,215.09572 287.26389,220.75076 290,227 c 1.05632,5.08759 0.80285,8.61578 -1.8125,13.125 C 286,242 286,242 283,242 c 0,0.66 0,1.32 0,2 -6.22862,0.64882 -10.18991,-0.12208 -15.46875,-3.51562 C 265.69735,238.70661 265.60123,237.42495 265,235 c -0.99,-0.33 -1.98,-0.66 -3,-1 -2.633,-5.266 -2.81308,-11.2472 -2,-17 3.94151,-6.70056 10.33666,-6.11987 17.17969,-4.47656 z"
     style="fill:#f9f9f9"
     id="path62" />
  <path
     d="m 226.875,213.1875 c 0.70125,0.26812 1.4025,0.53625 2.125,0.8125 0.6875,1.8125 0.6875,1.8125 1,4 -2.15849,2.78332 -4.37182,3.67838 -7.6875,4.6875 -0.80824,0.25137 -1.61648,0.50273 -2.44922,0.76172 -0.61488,0.18176 -1.22976,0.36351 -1.86328,0.55078 -1.10266,3.8593 -1.29018,5.45312 0.625,9.0625 3.40315,4.24921 3.40315,4.24921 7.375,7.9375 2.65127,0.16978 2.65127,0.16978 5,-1 0.47437,-0.51563 0.94875,-1.03125 1.4375,-1.5625 C 234,237 234,237 237.1875,236.8125 c 1.39219,0.0928 1.39219,0.0928 2.8125,0.1875 0,0.66 0,1.32 0,2 -1.75,1.50781 -1.75,1.50781 -4,3.125 -0.7425,0.53883 -1.485,1.07766 -2.25,1.63281 -0.5775,0.40992 -1.155,0.81985 -1.75,1.24219 1.28774,2.82601 2.63983,4.8955 4.82812,7.09375 0.82952,0.83338 0.82952,0.83338 1.67579,1.68359 0.57621,0.56848 1.15242,1.13696 1.74609,1.72266 0.56074,0.56848 1.12148,1.13695 1.69922,1.72266 6.17392,6.3063 6.17392,6.3063 14.23828,9.08984 2.88889,-0.22156 2.88889,-0.22156 5.8125,-1.3125 -0.39042,4.95746 -2.90807,7.54544 -6.3125,10.875 -0.48662,0.51047 -0.97324,1.02094 -1.47461,1.54687 -1.45117,1.44532 -1.45117,1.44532 -4.21289,3.57813 -2.35547,-0.17969 -2.35547,-0.17969 -4,-1 0.24234,-0.72832 0.48469,-1.45664 0.73437,-2.20703 0.56083,-2.85645 0.56083,-2.85645 -1.21875,-5.11719 C 243.03535,270.08859 240.54892,267.51996 238,265 c -0.4718,-0.47824 -0.94359,-0.95648 -1.42969,-1.44922 -1.42163,-1.43315 -2.86516,-2.83923 -4.32031,-4.23828 -0.88172,-0.84949 -1.76344,-1.69898 -2.67188,-2.57422 -2.43308,-2.0266 -2.43308,-2.0266 -5.26171,-1.54297 -1.14662,0.39832 -1.14662,0.39832 -2.31641,0.80469 -0.76313,0.18563 -1.52625,0.37125 -2.3125,0.5625 -0.55688,0.14437 -1.11375,0.28875 -1.6875,0.4375 -0.33,-0.66 -0.66,-1.32 -1,-2 1.98,-2.475 1.98,-2.475 4,-5 -1.17876,-2.78615 -2.48318,-4.55566 -4.5,-6.875 -3.26685,-3.84505 -4.25071,-7.47344 -5,-12.4375 0.87477,-6.45144 4.87084,-11.42549 9.5625,-15.8125 C 224,213 224,213 226.875,213.1875 Z"
     style="fill:#080808"
     id="path64" />
  <path
     d="m 656,99 c 4.25752,2.45349 4.25752,2.45349 6,5 0.73669,3.79635 0.56707,7.46375 0.375,11.3125 -0.0271,1.02674 -0.0541,2.05348 -0.082,3.11133 -0.0705,2.52755 -0.16904,5.05077 -0.29297,7.57617 -0.66,0 -1.32,0 -2,0 -0.0928,0.89719 -0.0928,0.89719 -0.1875,1.8125 C 659,130 659,130 657.0625,131.75 c -4.39897,1.7955 -8.38013,2.06633 -13.0625,1.25 -4.22282,-2.99116 -5.95724,-5.97578 -7,-11 -0.99045,-7.7228 0.56943,-13.5821 5,-20 4.30167,-4.110489 8.45994,-5.209915 14,-3 z"
     style="fill:#fafafa"
     id="path66" />
  <path
     d="m 569,96 c 4.25237,2.474105 5.68005,4.1274 7.375,8.75 1.42707,7.84151 1.09182,14.96968 -2.375,22.25 -1.89588,2.40631 -3.05965,2.86002 -6.04688,3.30469 -5.47624,0.3124 -8.6735,-0.65136 -12.95312,-4.30469 -3.93721,-5.90582 -5.06627,-12.00999 -4,-19 3.57477,-8.445576 8.6677,-12.682079 18,-11 z"
     style="fill:#fbfbfb"
     id="path68" />
  <path
     d="m 496.1875,1024.4375 c 0.67716,-0.014 1.35432,-0.029 2.052,-0.044 5.04888,0.1015 7.77096,1.6586 11.7605,4.6064 3.23039,0.7907 3.23039,0.7907 6,1 0.32993,4.729 -0.36186,7.0956 -3,11 -0.495,1.485 -0.495,1.485 -1,3 -0.99,0 -1.98,0 -3,0 -0.17016,-0.7593 -0.34031,-1.5185 -0.51563,-2.3008 -0.24234,-0.9938 -0.48468,-1.9877 -0.73437,-3.0117 -0.34805,-1.4792 -0.34805,-1.4792 -0.70313,-2.9883 -1.21756,-3.1393 -2.09547,-4.1272 -5.04687,-5.6992 -5.80956,-1.1802 -10.83828,-0.5928 -15.875,2.5625 -7.08869,5.4304 -10.45977,11.6919 -12.125,20.4375 -0.83741,6.6857 -0.83741,6.6857 1.05469,12.9922 2.22761,2.7548 4.25,4.7932 7.82812,5.2461 5.28867,0.175 8.79562,-0.6278 13.39063,-3.2656 C 498,1067 498,1067 501,1066 c -0.37575,2.5798 -0.81135,3.8046 -2.64453,5.7031 -6.3398,4.5236 -11.6576,5.5327 -19.35547,4.2969 -6.3585,-2.0471 -10.61649,-5.3812 -13.75,-11.3125 -2.41863,-7.135 -1.26623,-12.9883 1.75,-19.6875 3.3094,-6.0223 6.41769,-10.8936 12,-15 0.6252,-0.4898 1.25039,-0.9797 1.89453,-1.4844 4.92476,-3.2497 9.45968,-4.0114 15.29297,-4.0781 z"
     style="fill:#0c0c0c"
     id="path70" />
  <path
     d="m 162.5,760.9375 c 7.55107,3.61629 13.68426,10.11218 16.5,18.0625 0.3643,2.31789 0.61931,4.60913 0.78906,6.94922 0.15621,2.24909 0.15621,2.24909 1.21094,5.05078 -5.12919,2.10428 -9.56108,2.21756 -15,2 0,-0.66 0,-1.32 0,-2 1.65533,-1.01866 3.3226,-2.01811 5,-3 1.98164,-3.96328 1.54886,-8.6902 1,-13 -2.93195,-4.13923 -6.37045,-6.06243 -11,-8 -2.82417,-0.25775 -5.3787,-0.37722 -8.1875,-0.3125 -1.06638,-0.005 -1.06638,-0.005 -2.1543,-0.01 -3.74464,0.0388 -5.47239,0.19839 -8.6582,2.32227 -3.1875,0.125 -3.1875,0.125 -6,0 0,0.66 0,1.32 0,2 -1.14469,0.64968 -1.14469,0.64968 -2.3125,1.3125 -3.19862,2.00843 -4.30961,3.16622 -5.6875,6.6875 -0.53566,5.38746 0.70556,9.21251 4.0625,13.4375 3.68263,3.84308 6.73157,4.83184 11.9375,5.5625 0,0.66 0,1.32 0,2 -4.61472,0.69365 -8.41832,0.93873 -12.52734,-1.5 -5.47477,-4.66403 -9.67344,-9.56166 -10.84375,-16.79297 -0.29889,-5.40721 0.744,-8.53588 4.37109,-12.70703 10.4299,-10.5204 23.55923,-13.18179 37.5,-8.0625 z"
     style="fill:#0c0c0c"
     id="path72" />
  <path
     d="m 896,918 c 0.99,0 1.98,0 3,0 1.42163,3.31714 2.39009,6.4422 3,10 -4,0 -4,0 -6,-2 -3.41538,-0.58369 -3.41538,-0.58369 -7,0 -2.67839,1.93126 -2.67839,1.93126 -4,5 -0.25412,3.63826 -0.25412,3.63826 1,7 3.98156,3.1705 7.32109,3.37764 12.3125,3.5 12.5755,0.56829 12.5755,0.56829 17.23828,4.96094 4.02397,4.6474 4.84959,7.43339 4.44922,13.53906 -1.97636,5.73146 -4.02798,10.5184 -9.63281,13.3125 -1.95501,0.85755 -3.92375,1.68463 -5.90625,2.47656 -2.74656,1.0959 -2.74656,1.0959 -4.46094,4.21094 -0.59812,-0.76312 -1.19625,-1.52625 -1.8125,-2.3125 -1.9901,-2.62339 -1.9901,-2.62339 -4,-4.1875 C 893,972 893,972 893.3125,969.3125 893.53937,968.54938 893.76625,967.78625 894,967 c 2.16874,0.50604 3.99968,0.99984 6,2 4.59149,0.45915 7.66979,0.72131 11.4375,-2.125 2.87195,-3.22219 3.73793,-4.57688 3.5625,-8.875 -2.24721,-4.24208 -2.24721,-4.24208 -6,-7 -3.66603,-0.20078 -7.32577,-0.34503 -10.99609,-0.42969 -6.56016,-0.2611 -12.34995,-1.31445 -17.50391,-5.69531 -2.14262,-4.10669 -2.46202,-7.34395 -1.5,-11.875 2.8767,-6.35313 6.61401,-10.28004 13,-13 1.32,0 2.64,0 4,0 0,-0.66 0,-1.32 0,-2 z"
     style="fill:#0c0c0c"
     id="path74" />
  <path
     d="m 162,806 c 5.36553,-0.53655 9.76433,0.66403 14,4 1,3.25 1,3.25 1,6 -6.55008,3.56962 -12.77386,4.76154 -20.15625,5.60547 -2.73887,0.0886 -2.73887,0.0886 -3.84375,1.39453 -1.66617,0.0406 -3.33388,0.0427 -5,0 2.27415,3.37088 2.27415,3.37088 6,5 2.55519,0.12345 5.06986,0.18984 7.625,0.1875 1.0787,9.7e-4 1.0787,9.7e-4 2.1792,0.002 4.6439,-0.0461 8.86011,-0.51883 13.35596,-1.74419 2.62581,-0.63554 5.15593,-0.58295 7.83984,-0.44531 0.66,1.65 1.32,3.3 2,5 -5.92652,2.59758 -11.57972,4.52378 -17.96875,5.60547 -2.08863,0.31136 -2.08863,0.31136 -4.03125,1.39453 -1.9996,0.04 -4.00047,0.0435 -6,0 0,1.65 0,3.3 0,5 1.98,0 3.96,0 6,0 0.33,0.99 0.66,1.98 1,3 -6.09186,0.49729 -9.18991,-0.44053 -14,-4 -1.0625,-2.625 -1.0625,-2.625 -1,-5 2,-2 2,-2 5,-2 0,-0.66 0,-1.32 0,-2 -0.74766,-0.17016 -1.49531,-0.34031 -2.26563,-0.51563 -0.98484,-0.24234 -1.96968,-0.48468 -2.98437,-0.73437 -0.97453,-0.23203 -1.94906,-0.46406 -2.95313,-0.70313 C 144.64593,829.86747 143.10131,828.60423 141,826 c -0.18584,-3.62384 0.92687,-4.91265 3.25,-7.6875 4.02237,-3.12635 8.68668,-3.25569 13.60547,-3.85156 3.89178,-0.57048 6.7056,-1.58516 10.14453,-3.46094 0.33,-0.66 0.66,-1.32 1,-2 -1.98,0 -3.96,0 -6,0 -0.33,-0.99 -0.66,-1.98 -1,-3 z"
     style="fill:#0b0b0b"
     id="path76" />
  <path
     d="m 759.1875,1019.875 c 0.90105,0.018 1.80211,0.036 2.73047,0.055 0.68707,0.023 1.37414,0.046 2.08203,0.07 0.0553,0.7113 0.1107,1.4226 0.16772,2.1555 0.2527,3.2193 0.51117,6.4382 0.76978,9.657 0.13052,1.6793 0.13052,1.6793 0.26367,3.3926 0.13052,1.6097 0.13052,1.6097 0.26367,3.2519 0.0786,0.9898 0.15711,1.9795 0.23804,2.9993 0.22329,2.6623 0.22329,2.6623 1.29712,5.5437 0.66,0.33 1.32,0.66 2,1 0.33,-1.65 0.66,-3.3 1,-5 0.66,0 1.32,0 2,0 -0.47425,4.9796 -1.77647,8.1497 -5,12 -2.625,1 -2.625,1 -5,1 -5.70399,-5.704 -4.54763,-22.1668 -5,-30 -2.475,-0.495 -2.475,-0.495 -5,-1 -2.53469,8.3138 -3.5964,16.4152 -4.26514,25.0557 -0.35928,4.3333 -0.7743,7.9825 -2.73486,11.9443 -0.99,0 -1.98,0 -3,0 -1.85467,-10.4491 -2.23049,-20.423 -2,-31 -2.01391,0.6723 -2.01391,0.6723 -4,2 -0.9116,2.1721 -0.9116,2.1721 -1.25,4.625 -0.14953,0.8173 -0.29906,1.6345 -0.45313,2.4766 -0.14695,0.9397 -0.14695,0.9397 -0.29687,1.8984 -0.66,-0.33 -1.32,-0.66 -2,-1 -0.6823,-6.3681 0.39363,-9.4178 4.19922,-14.5312 2.35474,-1.9206 3.84261,-1.751 6.80078,-1.4688 0.33,1.65 0.66,3.3 1,5 3.22394,-1.1117 3.94454,-1.8935 5.5625,-5 0.47437,-0.99 0.94875,-1.98 1.4375,-3 3.31371,-2.2091 4.3446,-2.2248 8.1875,-2.125 z"
     style="fill:#0d0d0d"
     id="path78" />
  <path
     d="m 372,997 c 1,1 1,1 1.09766,3.0664 -0.0116,0.8237 -0.0232,1.6474 -0.0352,2.4961 -0.009,0.8263 -0.0181,1.6526 -0.0273,2.5039 -0.0116,0.6381 -0.0232,1.2762 -0.0352,1.9336 0.99,-0.66 1.98,-1.32 3,-2 5.26219,-0.7005 9.63333,-0.8575 14.1875,2 0.59812,0.66 1.19625,1.32 1.8125,2 -0.58966,3.1426 -1.50447,4.9272 -3.61719,7.3125 -0.52465,0.6007 -1.04929,1.2014 -1.58984,1.8203 -0.55043,0.6162 -1.10086,1.2324 -1.66797,1.8672 -6.09234,5.8366 -6.09234,5.8366 -9.125,13 1.65,0.33 3.3,0.66 5,1 0,0.66 0,1.32 0,2 -2.97881,0.9929 -5.01601,1.1341 -8.125,1.125 -0.88945,0 -1.77891,0.01 -2.69531,0.01 C 368,1037 368,1037 367,1036 c -0.38617,-5.0201 -0.22699,-8.0671 3,-12 1.95653,-1.55 3.96708,-3.0035 5.99609,-4.457 3.49322,-2.6897 6.36469,-5.6745 7.81641,-9.918 0.0619,-0.5363 0.12375,-1.0725 0.1875,-1.625 -7.51485,-0.4421 -11.02655,2.0745 -16.6875,6.6875 -0.86238,0.6961 -1.72477,1.3922 -2.61328,2.1094 -1.81595,1.4822 -3.62577,2.9719 -5.42969,4.4687 -0.87269,0.7167 -1.74539,1.4335 -2.64453,2.1719 -0.79148,0.6587 -1.58297,1.3174 -2.39844,1.9961 -2.15555,1.5164 -3.65142,2.149 -6.22656,2.5664 -0.68799,-1.7744 -0.68799,-1.7744 -1,-4 1.18408,-1.7959 1.18408,-1.7959 3.00781,-3.6094 0.65742,-0.6729 1.31485,-1.3458 1.99219,-2.039 0.70125,-0.6936 1.4025,-1.3871 2.125,-2.1016 5.07713,-5.0771 9.35661,-9.9619 12.875,-16.25 -1.05188,0.4744 -2.10375,0.9488 -3.1875,1.4375 -2.91426,1.2557 -5.65997,2.0848 -8.8125,2.5625 0,-0.66 0,-1.32 0,-2 5.87326,-3.80674 9.94848,-5.75552 17,-5 z"
     style="fill:#0b0b0b"
     id="path80" />
  <path
     d="m 1040,329 c 4.1594,1.87929 6.398,4.20846 9,8 -0.027,2.46875 -0.027,2.46875 -1,5 -2.2734,1.88672 -2.2734,1.88672 -5.375,3.6875 -0.5607,0.3296 -1.1215,0.65919 -1.6992,0.99878 -6.7872,3.9286 -13.7725,7.51584 -20.7383,11.1145 -3.135,1.62875 -6.1806,3.34169 -9.1875,5.19922 -0.9204,0.53238 -1.8408,1.06477 -2.7891,1.61328 -7.3055,4.25365 -7.3055,4.25365 -11.2109,11.38672 -4.03441,-1.3448 -5.12667,-3.9531 -7.1875,-7.4375 -0.36803,-0.59877 -0.73605,-1.19754 -1.11523,-1.81445 C 986,362.27929 986,362.27929 986,360 c 1.85625,0.43313 1.85625,0.43313 3.75,0.875 6.77011,0.7265 11.5057,-2.68074 17.25,-5.875 2.0057,-1.0112 4.0227,-1.99708 6.0415,-2.98193 6.8657,-3.35481 13.4793,-6.95809 19.9585,-11.01807 0.8869,-0.45375 1.7738,-0.9075 2.6875,-1.375 2.4673,-1.42323 2.4673,-1.42323 3.2383,-3.88672 0.1914,-1.20076 0.1914,-1.20076 0.3867,-2.42578 0.1405,-0.80824 0.281,-1.61648 0.4258,-2.44922 0.086,-0.61488 0.1727,-1.22976 0.2617,-1.86328 z"
     style="fill:#080808"
     id="path82" />
  <path
     d="m 713,1034 c 2.475,0.495 2.475,0.495 5,1 0,9.57 0,19.14 0,29 1.65,-0.66 3.3,-1.32 5,-2 0.3125,2.25 0.3125,2.25 0,5 -3.7558,3.9645 -3.7558,3.9645 -7.1875,4.0625 -2.56781,-1.5053 -2.95921,-3.2893 -3.8125,-6.0625 -0.99,0 -1.98,0 -3,0 -0.0412,0.7425 -0.0825,1.485 -0.125,2.25 -0.875,2.75 -0.875,2.75 -3.5,5.125 -4.05028,1.9501 -6.08762,1.8019 -10.375,0.625 -1.35701,-2.714 -1.11239,-4.8485 -1.09766,-7.8828 0.003,-1.1666 0.006,-2.3332 0.01,-3.5352 0.008,-1.2233 0.0168,-2.4466 0.0254,-3.707 0.005,-1.2311 0.009,-2.4621 0.0137,-3.7305 0.0118,-3.0482 0.0283,-6.0963 0.0488,-9.1445 -0.66,0 -1.32,0 -2,0 0,0.99 0,1.98 0,3 -0.99,-0.33 -1.98,-0.66 -3,-1 0.33,-1.32 0.66,-2.64 1,-4 0.66,0 1.32,0 2,0 0.10312,-0.6187 0.20625,-1.2375 0.3125,-1.875 C 693,1039 693,1039 696,1037 c 1.32,0 2.64,0 4,0 0.33,9.9 0.66,19.8 1,30 0.99,0 1.98,0 3,0 4.47244,-10.0886 7.00585,-18.8207 7.75391,-29.8125 C 712,1035 712,1035 713,1034 Z"
     style="fill:#0f0f0f"
     id="path84" />
  <path
     d="m 1082,537 c 4.1576,1.59907 6.7122,3.14688 9,7 1.4939,4.48178 1.4405,8.85235 0.5,13.4375 -2.5899,2.69783 -5.8768,2.32875 -9.5,2.5625 0.4131,-2.8916 0.8849,-3.89188 3.0625,-5.9375 2.1734,-1.91771 2.1734,-1.91771 2.3125,-4.6875 -0.1652,-2.55727 -0.1652,-2.55727 -2.375,-4.375 -2.9575,-0.58345 -2.9575,-0.58345 -6,0 -1.5403,2.18551 -1.5403,2.18551 -3,5 -1.3716,2.25218 -2.7461,4.50232 -4.125,6.75 -0.3596,0.5891 -0.7193,1.1782 -1.0898,1.78516 -2.6695,4.34919 -2.6695,4.34919 -3.7852,5.46484 -2.5305,0.0731 -5.033,0.0925 -7.5625,0.0625 -0.7109,-0.005 -1.4218,-0.009 -2.1543,-0.0137 -1.7611,-0.0118 -3.5222,-0.0298 -5.2832,-0.0488 -4.9941,-6.55482 -4.5772,-12.99424 -4,-21 0.33,-1.65 0.66,-3.3 1,-5 3.63,0 7.26,0 11,0 -2,4 -2,4 -4.625,6.125 -3.4104,4.12833 -2.8255,7.71971 -2.375,12.875 4.7445,0.0243 4.7445,0.0243 8.5547,-2.49609 1.5757,-2.11663 3.0183,-4.28414 4.4453,-6.50391 1.2429,-1.81737 2.493,-3.62987 3.75,-5.4375 0.5723,-0.84434 1.1447,-1.68867 1.7344,-2.55859 2.898,-3.83167 5.9482,-3.30841 10.5156,-3.00391 z"
     style="fill:#0e0e0e"
     id="path86" />
  <path
     d="m 870,153 c 1.98,0 3.96,0 6,0 0,0.66 0,1.32 0,2 2.475,0.495 2.475,0.495 5,1 -0.50491,5.03385 -2.22975,8.65725 -4.875,12.875 -0.39566,0.64566 -0.79132,1.29132 -1.19897,1.95654 -3.01834,4.86519 -6.22556,9.59008 -9.48853,14.29346 -1.37391,1.98959 -2.74733,3.97951 -4.11963,5.97021 -0.862,1.2459 -1.72868,2.48856 -2.60059,3.72754 -5.53016,7.52146 -5.53016,7.52146 -6.71728,16.48975 0.33,1.21688 0.66,2.43375 1,3.6875 -4.23647,-0.57981 -7.14731,-2.03891 -10.75,-4.3125 -0.96422,-0.59426 -1.92844,-1.18852 -2.92188,-1.80078 C 837,207 837,207 836.17187,204.76953 836.11516,204.18559 836.05844,203.60164 836,203 c 0.88688,0.10312 1.77375,0.20625 2.6875,0.3125 3.45741,-0.0167 3.45741,-0.0167 6,-2.5 2.08856,-2.54014 3.62747,-5.00141 5.3125,-7.8125 1.42507,-2.07111 2.86359,-4.133 4.3125,-6.1875 3.33203,-4.75754 6.43659,-9.57977 9.33594,-14.61719 1.27357,-2.06863 2.67552,-3.83232 4.22656,-5.69531 3.0949,-4.12323 2.57171,-8.56629 2.125,-13.5 z"
     style="fill:#090909"
     id="path88" />
  <path
     d="m 600,69 c 4.29,0 8.58,0 13,0 0.17322,16.802009 0.17322,16.802009 -0.5,24.9375 -0.5443,7.43341 -0.71871,14.86046 -0.8125,22.3125 -0.0296,1.2039 -0.0593,2.40781 -0.0898,3.64819 -0.008,1.13188 -0.0155,2.26376 -0.0234,3.42994 -0.0146,1.01997 -0.0292,2.03994 -0.0442,3.09082 0.21063,2.73356 0.21063,2.73356 2.49658,4.24804 0.65122,0.43989 1.30244,0.87979 1.97339,1.33301 0,0.99 0,1.98 0,3 -12.6697,0.36902 -12.6697,0.36902 -18,-2 0,-0.99 0,-1.98 0,-3 0.63422,-0.51563 1.26844,-1.03125 1.92187,-1.5625 3.20413,-3.75823 3.01847,-7.6276 3.32813,-12.4375 0.073,-0.99226 0.14599,-1.98451 0.22119,-3.00684 0.55375,-8.40605 0.797,-16.820536 0.90381,-25.24316 0.0261,-1.219453 0.0522,-2.438906 0.0791,-3.695312 0.002,-1.136954 0.005,-2.273907 0.007,-3.445313 0.008,-1.010947 0.0164,-2.021895 0.0249,-3.063477 -0.23372,-2.701519 -0.23372,-2.701519 -2.51465,-4.208984 C 601.3207,72.895732 600.67021,72.454551 600,72 c 0,-0.99 0,-1.98 0,-3 z"
     style="fill:#0c0c0c"
     id="path90" />
  <path
     d="m 996.34766,820.37109 c 3.67454,0.87128 5.61004,3.0075 8.08984,5.69141 0.4815,0.49935 0.9631,0.9987 1.4592,1.51318 2.6336,2.75571 5.1276,5.60053 7.5408,8.54932 2.5574,2.86928 3.051,3.26366 6.5625,3.875 -0.495,-3.465 -0.495,-3.465 -1,-7 1.4844,1.14843 1.4844,1.14843 3,3 0.3281,2.66406 0.3281,2.66406 0.25,5.625 -0.015,0.98226 -0.031,1.96453 -0.047,2.97656 C 1022,847 1022,847 1021,848 c -2.9868,0.49781 -5.1027,0.54524 -7.7422,-1.0586 -3.933,-3.22507 -6.8898,-6.92403 -9.8437,-11.03906 -1.9364,-2.60501 -3.98802,-4.74583 -6.4141,-6.90234 -0.66,0 -1.32,0 -2,0 -0.59441,6.89882 0.52365,11.26187 4.125,17.125 0.40654,0.69649 0.81308,1.39299 1.2319,2.11059 2.1545,3.61107 4.3913,6.86482 7.2681,9.95191 2.375,2.8125 2.375,2.8125 2.25,5.75 -0.4331,1.02093 -0.4331,1.02093 -0.875,2.0625 -1.98,0.495 -1.98,0.495 -4,1 -0.4048,-0.72317 -0.8095,-1.44633 -1.2266,-2.19141 -1.8264,-2.89259 -3.8266,-5.23808 -6.1484,-7.74609 -1.18529,-1.29745 -1.18529,-1.29745 -2.39453,-2.6211 C 994.12639,853.23291 994.12639,853.23291 993,852 c -5,-5.62069 -5,-5.62069 -5,-8 -1.65,-0.33 -3.3,-0.66 -5,-1 0,-1.65 0,-3.3 0,-5 2.64,0 5.28,0 8,0 -0.0348,-0.80825 -0.0696,-1.61649 -0.10546,-2.44922 -0.0271,-1.06864 -0.0542,-2.13727 -0.082,-3.23828 -0.0348,-1.05575 -0.0696,-2.11149 -0.10546,-3.19922 0.40134,-4.26492 1.20087,-7.55284 5.64062,-8.74219 z"
     style="fill:#0a0a0a"
     id="path92" />
  <path
     d="m 316.6875,172.3125 c 1.09312,0.22687 2.18625,0.45375 3.3125,0.6875 0,2.125 0,2.125 -1,5 -1.84766,1.45703 -1.84766,1.45703 -4.0625,2.9375 -3.25422,2.199 -3.25422,2.199 -4.6875,5.75 0.93478,4.12861 2.32624,7.98545 3.875,11.92187 C 315,201 315,201 315,203 c 0.66,0 1.32,0 2,0 1.37267,1.97321 2.70428,3.97543 4,6 1.83884,2.28729 1.83884,2.28729 4.625,2.125 1.17563,-0.0619 1.17563,-0.0619 2.375,-0.125 -0.36893,2.74583 -0.86502,3.8653 -2.85547,5.85156 -4.23768,3.22263 -7.85264,5.92723 -13.14453,7.14844 0.33,-0.99 0.66,-1.98 1,-3 0.47998,-3.49701 0.6171,-5.97085 -1.23438,-9.05859 C 310.22212,209.92033 308.61674,207.96259 307,206 c -1.37529,-2.25548 -2.73035,-4.51191 -4.00781,-6.82422 -2.28874,-3.81524 -2.28874,-3.81524 -6.09375,-5.84375 C 294.44851,192.99441 294.44851,192.99441 291,193 c 0,-2 0,-2 2.375,-4.4375 0.86625,-0.84563 1.7325,-1.69125 2.625,-2.5625 0.66,-0.99 1.32,-1.98 2,-3 2.38564,0.57584 4.66683,1.22228 7,2 0.32613,-0.68707 0.65227,-1.37414 0.98828,-2.08203 0.43699,-0.90106 0.87399,-1.80211 1.32422,-2.73047 0.42926,-0.89332 0.85852,-1.78664 1.30078,-2.70703 3.12372,-5.5875 3.12372,-5.5875 8.07422,-5.16797 z"
     style="fill:#0b0b0b"
     id="path94" />
  <path
     d="m 848,973 c 2.875,-0.1875 2.875,-0.1875 6,0 5.41877,8.12815 5.50712,17.87911 5.44605,27.3604 -0.009,2.0059 0.0204,4.0089 0.052,6.0146 -0.005,9.2879 -0.55621,20.4927 -6.81055,28 -2.6875,1.625 -2.6875,1.625 -6.5,1.4375 -1.05188,-0.2681 -2.10375,-0.5363 -3.1875,-0.8125 -0.33,-1.32 -0.66,-2.64 -1,-4 3.3,-0.66 6.6,-1.32 10,-2 2.72603,-9.1342 2.72603,-9.1342 0.85547,-18.0117 C 847.70151,1004.0035 841.21379,998.03013 835,992 c -2.49362,1.20381 -4.68143,2.45429 -7,4 -0.0542,-1.43708 -0.0929,-2.87476 -0.125,-4.3125 -0.0232,-0.80051 -0.0464,-1.60102 -0.0703,-2.42578 C 828,987 828,987 830,984 c 5.99511,0.32345 9.06698,2.17054 13.1875,6.3125 0.50725,0.48662 1.01449,0.97324 1.53711,1.47461 2.20171,2.12175 4.34657,4.2879 6.45117,6.50586 1.81403,1.93543 1.81403,1.93543 4.82422,2.70703 -0.76363,-8.28144 -2.30882,-14.58221 -6.75781,-21.66016 C 848,977 848,977 848,973 Z"
     style="fill:#101010"
     id="path96" />
  <path
     d="m 195,285 c 0.75,2.1875 0.75,2.1875 1,5 -0.99,1.11375 -0.99,1.11375 -2,2.25 -2.2278,3.06323 -2.26214,3.70602 -1.9375,7.3125 0.57034,3.58247 1.50718,5.69018 3.9375,8.4375 0,0.99 0,1.98 0,3 0.57105,0.10441 1.14211,0.20883 1.73047,0.31641 2.6406,0.79536 4.35485,2.00312 6.58203,3.62109 3.87911,2.67813 7.0955,4.08548 11.6875,5.0625 -0.61583,3.62841 -2.1376,5.86121 -4.375,8.75 -0.90879,1.19883 -0.90879,1.19883 -1.83594,2.42187 -0.59039,0.60329 -1.18078,1.20657 -1.78906,1.82813 -0.99,0 -1.98,0 -3,0 -0.46406,-1.63969 -0.46406,-1.63969 -0.9375,-3.3125 -0.64588,-2.24158 -1.32481,-4.47443 -2.0625,-6.6875 -0.86625,-0.26813 -1.7325,-0.53625 -2.625,-0.8125 -3.77216,-1.32724 -5.79324,-3.0544 -8.66406,-5.75 -3.4714,-2.91661 -6.47891,-3.70866 -10.96094,-4.0625 -0.89203,-0.0748 -1.78406,-0.14953 -2.70313,-0.22656 -1.0132,-0.0735 -1.0132,-0.0735 -2.04687,-0.14844 0.45261,-1.43931 0.91233,-2.87639 1.375,-4.3125 0.25523,-0.80051 0.51047,-1.60102 0.77344,-2.42578 C 178,303 178,303 180,300 c 2.97,0.495 2.97,0.495 6,1 0.0606,-0.83144 0.12117,-1.66289 0.18359,-2.51953 0.0838,-1.08668 0.16758,-2.17336 0.25391,-3.29297 0.0812,-1.07895 0.16242,-2.15789 0.24609,-3.26953 C 187,289 187,289 188,286 c 2.46279,-1.23139 4.27951,-1.07159 7,-1 z"
     style="fill:#0b0b0b"
     id="path98" />
  <path
     d="m 528.49609,98.125 c 0.49629,0.28875 0.99258,0.5775 1.50391,0.875 -0.33,1.32 -0.66,2.64 -1,4 -2.33295,0.0424 -4.66703,0.0409 -7,0 -0.33,-0.33 -0.66,-0.66 -1,-1 -2.1864,-0.0726 -4.37501,-0.0837 -6.5625,-0.0625 -1.19754,0.009 -2.39508,0.0181 -3.62891,0.0273 -1.39025,0.0174 -1.39025,0.0174 -2.80859,0.0352 -0.30938,0.78375 -0.61875,1.5675 -0.9375,2.375 C 506,107 506,107 505,109 c -1.08647,8.26426 1.43803,15.30775 6.125,22.0625 2.6529,2.74133 3.60212,2.90927 7.5,3.3125 4.46441,-0.0163 7.15164,-1.72877 10.71093,-4.28125 C 531,129 531,129 533,129 c -0.55177,3.86235 -1.93143,5.62185 -5,8 -7.01172,3.49155 -13.57688,3.66379 -21.01172,1.38281 C 501.24925,135.76851 499.26263,130.60049 497,125 c -1.02766,-3.08298 -1.16599,-5.3313 -1.1875,-8.5625 -0.0142,-0.97066 -0.0284,-1.94133 -0.043,-2.94141 C 495.99999,111 495.99999,111 497.99999,109 c 0.4125,-1.11375 0.825,-2.2275 1.25,-3.375 2.21804,-5.31888 6.58444,-7.238834 11.6875,-9.375 6.74558,-2.316792 11.4298,-1.474325 17.5586,1.875 z"
     style="fill:#0b0b0b"
     id="path100" />
  <path
     d="M 972.9375,857.6875 C 976,858 976,858 977.8125,859.375 c 2.52135,3.45027 2.38388,6.13864 2.4375,10.375 0.0387,1.81758 0.0387,1.81758 0.0781,3.67187 -0.35459,3.86674 -1.47626,6.20755 -3.32812,9.57813 -0.0249,2.23966 -0.0249,2.23966 1,4 3.20809,2.13873 4.27698,2.47731 8,2 2.13587,-3.2038 2.23132,-4.0194 2.125,-7.6875 -0.0271,-1.21236 -0.0271,-1.21236 -0.0547,-2.44922 C 988.04711,878.2484 988.0239,877.63352 988,877 c 0.99,0 1.98,0 3,0 2.05673,4.11347 2.30013,6.57957 1,11 -2.17198,4.19497 -4.02971,7.35314 -8,10 -5.82231,-0.42055 -9.08234,-4.00843 -13,-8 -4.51661,-5.82405 -6.28646,-11.21057 -6.3125,-18.5625 -0.0168,-1.09441 -0.0335,-2.18883 -0.0508,-3.31641 0.59129,-5.08001 2.88352,-9.85729 8.30078,-10.43359 z"
     style="fill:#101010"
     id="path102" />
  <path
     d="m 795,134 c 3.65719,2.42591 6.45932,4.60059 8.0625,8.75 C 803,145 803,145 801,147 c -2.95026,-0.14049 -3.88853,-0.87841 -5.89453,-3.06641 -0.63293,-0.82371 -1.26586,-1.64742 -1.91797,-2.49609 -3.17801,-3.72539 -3.17801,-3.72539 -7.75,-5.375 -5.64458,1.53943 -8.78203,4.43554 -11.98828,9.28125 -2.97664,5.43342 -4.27113,9.49189 -3.44922,15.65625 1.56435,4.02262 2.38724,5.59149 6,8 2.96843,0.45915 2.96843,0.45915 6.1875,0.625 1.08668,0.0748 2.17336,0.14953 3.29297,0.22656 0.83144,0.049 1.66289,0.098 2.51953,0.14844 0,0.99 0,1.98 0,3 -2.69374,1.83174 -4.00299,1.99977 -7.3125,1.75 -7.74586,-1.57543 -12.03088,-2.8506 -16.88281,-9.35156 C 760.99456,161.09481 760.07374,157.11734 761,152 c 1.08581,-3.464 2.46968,-6.71179 4,-10 0.37125,-0.92813 0.7425,-1.85625 1.125,-2.8125 7.23601,-8.44201 19.09442,-9.24736 28.875,-5.1875 z"
     style="fill:#0f0f0f"
     id="path104" />
  <path
     d="m 1035,755 c 6.2198,6.93804 5.4761,18.2045 6,27 3.63,0.33 7.26,0.66 11,1 0,-4.62 0,-9.24 0,-14 0.99,0 1.98,0 3,0 2.0284,6.92045 2.5687,12.39799 -1,19 -2.9817,2.55578 -4.4884,3.0093 -8.4375,2.9375 -7.5586,-1.9891 -13.3836,-7.53741 -17.8945,-13.78125 -3.1718,-5.4694 -3.4934,-10.95153 -2.668,-17.15625 2.3355,-5.30792 4.3745,-6.78371 10,-5 z"
     style="fill:#0e0e0e"
     id="path106" />
  <path
     d="m 245.6875,907.5 c 2.80093,0.0101 3.966,0.22251 6.17578,1.99219 C 256,914.2509 256,914.2509 256,917 c 1.65,0.66 3.3,1.32 5,2 0,0.66 0,1.32 0,2 -0.90621,0.19594 -1.81242,0.39188 -2.74609,0.59375 C 249.99358,923.62168 243.41179,926.05153 238,933 c -1.13439,3.40316 -1.59512,4.80977 0,8 5.53626,0.36199 9.40635,-0.65559 14.25,-3.1875 0.91652,-0.43796 0.91652,-0.43796 1.85156,-0.88477 3.98922,-2.02509 5.94234,-3.93021 7.89844,-7.92773 1.375,-1.875 1.375,-1.875 3,-3 2.6875,0.3125 2.6875,0.3125 5,1 -0.0705,2.96183 -0.35818,5.19215 -2.23828,7.55859 -8.67685,7.97276 -17.67281,9.99666 -29.0625,10.00782 C 234.45699,943.91686 232.2581,942.76327 229,940 c -1.44119,-2.68837 -1.48186,-5.00796 -1,-8 2.50825,-5.69631 7.19097,-7.74347 12.75,-9.9375 C 246.55949,920 246.55949,920 249,920 c -0.66,-2.31 -1.32,-4.62 -2,-7 -0.66,0.66 -1.32,1.32 -2,2 -2.625,-0.375 -2.625,-0.375 -5,-1 1.0539,-5.87171 1.0539,-5.87171 5.6875,-6.5 z"
     style="fill:#0b0b0b"
     id="path108" />
  <path
     d="m 1075.4375,491.625 c 1.2684,1.17563 1.2684,1.17563 2.5625,2.375 0.5556,0.49371 1.1112,0.98742 1.6836,1.49609 1.6914,1.56641 1.6914,1.56641 4.3164,4.50391 0,0.99 0,1.98 0,3 0.66,0 1.32,0 2,0 1.476,2.95202 1.2481,5.65328 1.3125,8.9375 0.056,1.86978 0.056,1.86978 0.1133,3.77734 C 1087,519 1087,519 1085.1211,520.96094 1083,522 1083,522 1080.75,521.6875 1079,521 1079,521 1078.3125,519.4375 1078,517 1078,517 1079.5,513.6875 c 2.0772,-5.10649 1.201,-8.58465 -0.5,-13.6875 -7.4129,-2.47097 -16.7155,-2.13734 -23.75,1.25 -3.2473,1.78935 -5.2951,3.5809 -7.25,6.75 -0.6985,6.28611 0.9513,10.26841 4.6875,15.25 C 1054,525 1054,525 1054,527 c -2.25,-0.125 -2.25,-0.125 -5,-1 -5.7547,-7.2345 -6.9481,-13.9501 -6,-23 2.5131,-5.90033 7.5646,-8.92693 13,-12 6.1797,-2.05988 13.5424,-2.16175 19.4375,0.625 z"
     style="fill:#0d0d0d"
     id="path110" />
  <path
     d="m 1057,421 c 4.4562,0.51817 7.2145,1.67044 11,4 2.6926,0.70671 2.6926,0.70671 5,1 0,0.99 0,1.98 0,3 -1.98,0.99 -3.96,1.98 -6,3 0,3.3 0,6.6 0,10 -0.99,0 -1.98,0 -3,0 -0.99,-1.98 -1.98,-3.96 -3,-6 -5.6618,-0.44699 -10.7621,0.94629 -16,3 -0.66,0.66 -1.32,1.32 -2,2 -1.6681,0.58008 -3.3596,1.09451 -5.0625,1.5625 -3.2496,0.70863 -3.2496,0.70863 -5.9375,2.4375 0.09,1.69142 0.2458,3.3796 0.4375,5.0625 0.1018,0.9191 0.2037,1.8382 0.3086,2.78516 0.084,0.71027 0.1676,1.42054 0.2539,2.15234 -2.3125,-0.0625 -2.3125,-0.0625 -5,-1 -2.6965,-4.64914 -3.8204,-8.56473 -3,-14 3.8664,-3.79897 8.3004,-5.65222 13.25,-7.625 0.7527,-0.30559 1.5055,-0.61118 2.281,-0.92602 5.0998,-2.02507 10.0392,-3.56047 15.469,-4.44898 0.33,-1.98 0.66,-3.96 1,-6 z"
     style="fill:#0a0a0a"
     id="path112" />
  <path
     d="m 139,366 c 0.66,0 1.32,0 2,0 -0.0696,1.13889 -0.0696,1.13889 -0.14063,2.30078 -0.0361,0.99387 -0.0722,1.98774 -0.10937,3.01172 -0.0696,1.4792 -0.0696,1.4792 -0.14063,2.98828 0.12723,2.80331 0.12723,2.80331 2.21875,4.49219 2.23969,1.3321 2.23969,1.3321 5.17188,2.20703 0,0.66 0,1.32 0,2 0.78375,-0.0412 1.5675,-0.0825 2.375,-0.125 C 153,383 153,383 155,385 c 3.77949,1.8401 7.1382,2.34977 11.3125,2.625 1.06863,0.0748 2.13727,0.14953 3.23828,0.22656 0.80824,0.049 1.61649,0.098 2.44922,0.14844 0.66,-2.31 1.32,-4.62 2,-7 0.66,0 1.32,0 2,0 0.45973,5.74665 -0.40473,8.50592 -4,13 -0.61875,0.80437 -1.2375,1.60875 -1.875,2.4375 C 168,398 168,398 165.3125,398 c -4.29104,-1.29541 -8.27296,-3.07 -12.3125,-5 0,-0.66 0,-1.32 0,-2 -1.03125,-0.10312 -2.0625,-0.20625 -3.125,-0.3125 C 146,390 146,390 143.125,388.5 139.11128,386.57341 135.39951,386.28352 131,386 c -0.67757,-1.5578 -1.34159,-3.1215 -2,-4.6875 -0.37125,-0.87012 -0.7425,-1.74023 -1.125,-2.63672 C 126.9813,375.9428 126.8355,373.85299 127,371 c 0.55688,0.35062 1.11375,0.70125 1.6875,1.0625 2.89782,1.17479 4.3642,0.86854 7.3125,-0.0625 2.13855,-2.13855 2.42655,-3.13275 3,-6 z"
     style="fill:#090909"
     id="path114" />
  <path
     d="m 1070,455 c 3.3285,2.98418 5.3206,5.84563 7,10 -1,3 -1,3 -2.6523,4.02734 -6.6164,2.63524 -13.3081,4.20032 -20.2771,5.57789 -4.4759,0.79649 -4.4759,0.79649 -8.0706,3.39477 -0.825,0.2475 -1.65,0.495 -2.5,0.75 -2.8249,1.07313 -2.8249,1.07313 -3.8125,4.375 -0.2269,0.94875 -0.4537,1.8975 -0.6875,2.875 -0.66,-0.33 -1.32,-0.66 -2,-1 -0.7841,-2.3995 -1.4533,-4.74362 -2.0625,-7.1875 -0.1734,-0.66065 -0.3468,-1.32129 -0.5254,-2.00195 -1.0084,-3.91372 -1.8094,-7.81505 -2.4121,-11.81055 4.875,1.875 4.875,1.875 6,3 1.6643,0.0982 3.3328,0.12974 5,0.125 0.9075,0.003 1.815,0.005 2.75,0.008 2.2197,0.11893 2.2197,0.11893 3.25,-1.13281 1.4945,-0.2995 2.9961,-0.56418 4.5,-0.8125 5.1523,-1.00675 10.0499,-2.31489 14.5,-5.18749 1.6506,-2.56469 1.6506,-2.56469 2,-5 z"
     style="fill:#0a0a0a"
     id="path116" />
  <path
     d="m 740,118 c 4.62,0 9.24,0 14,0 -1.4361,6.73862 -3.14008,13.3663 -5,20 -0.66,0 -1.32,0 -2,0 0.0412,1.09312 0.0825,2.18625 0.125,3.3125 C 747,145 747,145 745,148 c -0.0629,2.16081 -0.0629,2.16081 0.3125,4.4375 0.0993,0.76184 0.19852,1.52367 0.30078,2.30859 0.36386,2.12067 0.83283,4.17562 1.38672,6.25391 -2.375,0.125 -2.375,0.125 -5,0 -0.66,-0.66 -1.32,-1.32 -2,-2 -1.7325,-0.2475 -1.7325,-0.2475 -3.5,-0.5 C 733,158 733,158 731,156 c -2.06874,-0.64252 -2.06874,-0.64252 -4,-1 0,-0.66 0,-1.32 0,-2 1.11375,-0.43313 2.2275,-0.86625 3.375,-1.3125 3.76709,-1.75365 4.91958,-2.81499 6.37109,-6.66797 0.22817,-0.72832 0.45633,-1.45664 0.69141,-2.20703 3.33228,-10.35206 3.33228,-10.35206 5.5625,-14.8125 0.33333,-3 0.33333,-3 0,-6 -0.99,-0.66 -1.98,-1.32 -3,-2 0,-0.66 0,-1.32 0,-2 z"
     style="fill:#080808"
     id="path118" />
  <path
     d="m 214,835 c 4.69487,3.37068 4.69487,3.37068 6,6.0625 0,1.9375 0,1.9375 -1.12134,3.40796 -2.47749,2.01709 -4.9305,2.86248 -7.93725,3.9397 -1.19045,0.43248 -2.3809,0.86496 -3.60743,1.31054 -1.25701,0.44769 -2.51417,0.89495 -3.77148,1.3418 -2.45773,0.88478 -4.91479,1.77142 -7.37109,2.66016 -1.09112,0.38937 -2.18223,0.77875 -3.3064,1.17993 -2.80768,1.00716 -2.80768,1.00716 -5.05713,2.2124 C 186,858 186,858 182.5625,858.4375 178.96723,859.00517 176.95286,859.94195 174,862 c 0.57945,1.99864 0.57945,1.99864 2,4 3.04199,1.29232 3.04199,1.29232 6,2 0,0.33 0,0.66 0,1 -4.72695,0.37816 -8.1315,0.40323 -12.5,-1.625 -2.9483,-2.80089 -3.31831,-4.37778 -3.5,-8.375 5.62136,-3.92188 11.03041,-6.02153 17.46484,-8.14844 8.61286,-2.84841 8.61286,-2.84841 16.84766,-6.60156 3.09667,-1.44031 5.31154,-1.49114 8.6875,-1.25 0,-0.66 0,-1.32 0,-2 0.99,-0.33 1.98,-0.66 3,-1 1.2187,-2.50448 1.2187,-2.50448 2,-5 z"
     style="fill:#0c0c0c"
     id="path120" />
  <path
     d="m 326,962 c 2.6875,0.3125 2.6875,0.3125 5,1 0,1.32 0,2.64 0,4 -2,1.75 -2,1.75 -4,3 0.495,3.96 0.495,3.96 1,8 -1.91812,-0.495 -1.91812,-0.495 -3.875,-1 -3.3615,-0.39173 -4.78694,-0.1991 -7.73828,1.53906 -2.55389,2.06947 -4.98076,4.22189 -7.38672,6.46094 -1.20159,1.00809 -2.40866,2.00976 -3.625,3 -0.78375,0.66 -1.5675,1.32 -2.375,2 0.33,0.99 0.66,1.98 1,3 2.64,0.33 5.28,0.66 8,1 0,0.66 0,1.32 0,2 -2.45862,0.0538 -4.91608,0.0936 -7.375,0.125 -0.69867,0.0168 -1.39734,0.0335 -2.11719,0.0508 -1.83679,0.0177 -3.67383,-0.0728 -5.50781,-0.17578 -2,-2 -2,-2 -2.4375,-4.8125 0.92853,-6.765 8.82754,-10.98346 13.91406,-15.00391 2.23807,-1.93666 3.87478,-3.74379 5.52344,-6.18359 -0.66,0 -1.32,0 -2,0 0.33,-0.99 0.66,-1.98 1,-3 1.0306,-0.16436 1.0306,-0.16436 2.08203,-0.33203 0.90106,-0.15856 1.80211,-0.31711 2.73047,-0.48047 0.89332,-0.15082 1.78664,-0.30164 2.70703,-0.45703 C 323.22733,964.93305 324.09816,963.9903 326,962 Z"
     style="fill:#0c0c0c"
     id="path122" />
  <path
     d="m 808,986 c 1.875,0.5625 1.875,0.5625 4,2 1.25,3.625 1.25,3.625 2,7 1.98,-0.33 3.96,-0.66 6,-1 -1.375,2.5 -1.375,2.5 -3,5 -0.66,0 -1.32,0 -2,0 0.45221,2.8761 0.91155,5.7507 1.375,8.625 0.12633,0.8082 0.25266,1.6165 0.38281,2.4492 0.72873,4.4817 1.65108,8.6506 3.24219,12.9258 0.99,0 1.98,0 3,0 0.33,-1.98 0.66,-3.96 1,-6 0.99,0 1.98,0 3,0 -0.59004,5.9004 -1.71178,10.7118 -6,15 -2.375,0.125 -2.375,0.125 -5,-1 -5.33133,-7.2273 -7.1904,-17.2564 -8,-26 -1.65,-0.33 -3.3,-0.66 -5,-1 0.47437,-0.7631 0.94875,-1.5263 1.4375,-2.3125 2.02708,-3.959 2.10342,-8.01662 2.35156,-12.39453 C 807,987 807,987 808,986 Z"
     style="fill:#0d0d0d"
     id="path124" />
  <path
     d="m 208,866 c 0.99,0 1.98,0 3,0 0,0.66 0,1.32 0,2 1.19625,-0.33 2.3925,-0.66 3.625,-1 3.53291,-0.89266 6.71579,-1.18296 10.375,-1 0.625,1.875 0.625,1.875 1,4 -2,2 -2,2 -4.625,2.125 -0.78375,-0.0412 -1.5675,-0.0825 -2.375,-0.125 0,2.64 0,5.28 0,8 -2.86725,-0.57345 -3.86145,-0.86145 -6,-3 -3.8152,0.43792 -7.42066,1.68714 -11.0625,2.875 -1.02223,0.32742 -2.04445,0.65484 -3.09766,0.99219 -2.7057,1.0793 -4.62075,2.27027 -6.83984,4.13281 0.33,1.32 0.66,2.64 1,4 2.31,0.33 4.62,0.66 7,1 0,0.66 0,1.32 0,2 -6.04015,0.36981 -10.81643,0.34772 -16,-3 -0.9375,-3.6875 -0.9375,-3.6875 -1,-7 1.65,-0.66 3.3,-1.32 5,-2 0,-0.66 0,-1.32 0,-2 3.12604,-1.31092 6.27183,-2.41354 9.5,-3.4375 3.47582,-1.15861 6.58043,-2.28159 9.5,-4.5625 0.87822,-2.08534 0.87822,-2.08534 1,-4 z"
     style="fill:#0a0a0a"
     id="path126" />
  <path
     d="m 1018.25,786.3125 c 0.5775,0.22687 1.155,0.45375 1.75,0.6875 0,1.98 0,3.96 0,6 -1.98,0.33 -3.96,0.66 -6,1 0.3118,7.32726 3.5696,12.47131 8.6367,17.68359 4.0826,3.35937 7.4257,3.7969 12.6406,3.49219 0.5685,-0.058 1.137,-0.11601 1.7227,-0.17578 -0.1846,-4.34184 -0.1846,-4.34184 -2,-8 -0.041,-1.99958 -0.043,-4.00045 0,-6 0.66,0 1.32,0 2,0 0.1238,0.63937 0.2475,1.27875 0.375,1.9375 0.2063,0.68062 0.4125,1.36125 0.625,2.0625 0.66,0.33 1.32,0.66 2,1 0.3843,4.80437 0.4797,8.09025 -1.8125,12.4375 -2.7407,3.21049 -4.2663,4.45821 -8.5,4.9375 -6.4506,-0.656 -10.2899,-4.48312 -14.2344,-9.32031 -3.964,-5.60502 -7.5877,-12.05608 -7.4531,-19.05469 2.1394,-4.12032 5.0197,-9.41394 10.25,-8.6875 z"
     style="fill:#080808"
     id="path128" />
  <path
     d="m 935,907 c 0.33,1.65 0.66,3.3 1,5 -2.97,0.66 -5.94,1.32 -9,2 -0.16563,5.46565 -0.2884,9.91466 2,15 0.66,0.33 1.32,0.66 2,1 0.47437,0.96938 0.94875,1.93875 1.4375,2.9375 1.35883,3.27993 1.35883,3.27993 4.5625,5.0625 3.08366,0.25022 3.08366,0.25022 6,0 1.66343,-1.66343 1.36048,-3.78257 1.5625,-6.0625 0.0838,-0.9191 0.16758,-1.8382 0.25391,-2.78516 0.0909,-1.06541 0.0909,-1.06541 0.18359,-2.15234 0.99,0 1.98,0 3,0 0.32248,6.04359 0.54613,10.80745 -3,16 -2.44907,2.624 -3.78426,2.96804 -7.375,3.5 -4.4439,-0.61295 -6.82311,-2.12692 -9.625,-5.5 -1.46232,-2.32158 -2.77008,-4.66708 -4.01953,-7.10938 C 923.14248,932.04175 923.14248,932.04175 922,931 c -0.1268,-2.22644 -0.17585,-4.45749 -0.1875,-6.6875 -0.0142,-1.22074 -0.0284,-2.44148 -0.043,-3.69922 0.29633,-4.6458 1.21458,-8.18351 3.91797,-11.98828 3.16669,-2.22524 5.53484,-1.91559 9.3125,-1.625 z"
     style="fill:#0a0a0a"
     id="path130" />
  <path
     d="M 537.8125,1051.125 C 540,1052 540,1052 541,1053 c 0.92267,5.882 -0.59217,9.9861 -3.1875,15.25 -0.29133,0.6022 -0.58266,1.2045 -0.88281,1.825 -2.04404,3.9372 -4.18029,6.5423 -7.92969,8.925 -5.30612,-0.3061 -5.30612,-0.3061 -7,-2 -0.46258,-5.593 0.60143,-9.1543 3.125,-14.125 0.58008,-1.1782 1.16016,-2.3564 1.75781,-3.5703 2.64107,-4.1224 5.6266,-8.4154 10.92969,-8.1797 z"
     style="fill:#f5f5f5"
     id="path132" />
  <path
     d="m 946,887 c 3.58918,1.46578 5.36378,3.36777 7.6875,6.4375 0.60199,0.78246 1.20398,1.56492 1.82422,2.37109 C 957,898 957,898 958,901 c 0.66,0.33 1.32,0.66 2,1 1.54266,3.26681 2.39103,6.44765 3,10 1.96757,-0.0312 1.96757,-0.0312 4,-1 1.30457,-2.99616 1.30457,-2.99616 2,-6 0.66,0.33 1.32,0.66 2,1 -0.0877,1.58433 -0.19587,3.16754 -0.3125,4.75 -0.058,0.88172 -0.11602,1.76344 -0.17578,2.67187 -0.57584,2.90117 -1.58768,4.37039 -3.51172,6.57813 -2.60071,-0.0765 -4.41183,-0.50231 -6.42188,-2.20313 -4.13355,-4.57802 -7.02122,-9.8294 -9.96484,-15.22265 -1.5111,-2.80255 -1.5111,-2.80255 -4.61328,-4.57422 -0.33,1.65 -0.66,3.3 -1,5 -0.66,0 -1.32,0 -2,0 -0.0813,-1.91596 -0.13934,-3.83292 -0.1875,-5.75 -0.0348,-1.06734 -0.0696,-2.13469 -0.10547,-3.23438 0.32214,-3.3159 1.06446,-4.60579 3.29297,-7.01562 z"
     style="fill:#0d0d0d"
     id="path134" />
  <path
     d="m 222,890 c 3.63,0 7.26,0 11,0 0,0.66 0,1.32 0,2 1.32,0.33 2.64,0.66 4,1 -0.47979,4.5747 -0.47979,4.5747 -2.77832,6.45386 -0.75894,0.38003 -1.51787,0.76006 -2.29981,1.15161 -0.83144,0.42603 -1.66289,0.85207 -2.51953,1.29101 -0.87527,0.42604 -1.75054,0.85207 -2.65234,1.29102 -0.8598,0.43764 -1.71961,0.87527 -2.60547,1.32617 -3.25364,1.64186 -6.45139,3.22873 -9.87012,4.49927 -2.43148,0.76583 -2.43148,0.76583 -3.27441,2.98706 0.94875,-0.0206 1.8975,-0.0412 2.875,-0.0625 C 217,912 217,912 219,913 c 0,0.66 0,1.32 0,2 -1.91596,0.0813 -3.83292,0.13934 -5.75,0.1875 -1.60102,0.0522 -1.60102,0.0522 -3.23438,0.10547 C 206.69972,914.97083 205.40983,914.22851 203,912 c 0.27053,-3.24631 0.64301,-4.6608 3.03906,-6.9375 3.55364,-2.47535 7.1713,-4.13526 11.14844,-5.8125 1.08571,-0.47373 1.08571,-0.47373 2.19336,-0.95703 C 224.71623,896 224.71623,896 227,896 c -0.33,-0.99 -0.66,-1.98 -1,-3 -2.01508,-0.73324 -2.01508,-0.73324 -4,-1 0,-0.66 0,-1.32 0,-2 z"
     style="fill:#0c0c0c"
     id="path136" />
  <path
     d="m 291,950 c 0.66,1.32 1.32,2.64 2,4 -4.56391,6.38948 -10.52124,10.59159 -18,13 -3.35118,0.22603 -6.64776,0.18211 -10,0 -0.43641,-2.98214 -0.48618,-5.16269 1.05469,-7.81641 C 273.00871,950.48167 280.2258,949.35355 291,950 Z"
     style="fill:#f8f8f8"
     id="path138" />
  <path
     d="m 788,1007 c 4.125,12.375 4.125,12.375 4.31641,16.0117 0.0628,1.136 0.0628,1.136 0.12695,2.2949 0.0393,0.7857 0.0786,1.5714 0.11914,2.3809 0.0432,0.7973 0.0864,1.5946 0.13086,2.416 0.10591,1.9653 0.20677,3.9309 0.30664,5.8965 1.65,-0.33 3.3,-0.66 5,-1 0.33,-1.65 0.66,-3.3 1,-5 0.33,0 0.66,0 1,0 -0.1965,4.5098 -0.44428,8.0473 -2.75,12 -2.48496,2.2089 -3.97386,2.727 -7.25,3 -2.96897,-4.1501 -3.62441,-7.9709 -4.0625,-12.9375 -0.46427,-4.9231 -1.18123,-9.4058 -2.9375,-14.0625 -1.98,0.99 -1.98,0.99 -4,2 0,-1.98 0,-3.96 0,-6 0.66,0 1.32,0 2,0 0.10312,-0.7838 0.20625,-1.5675 0.3125,-2.375 1.03285,-3.9436 2.73137,-4.625 6.6875,-4.625 z"
     style="fill:#0b0b0b"
     id="path140" />
  <path
     d="m 335,985 c 4.62,0 9.24,0 14,0 -0.23577,4.17719 -0.51076,6.42358 -3.25781,9.66016 -0.94617,0.79277 -1.89235,1.58554 -2.86719,2.40234 -0.98871,0.84691 -1.97742,1.69383 -2.99609,2.56641 -1.42506,1.17369 -1.42506,1.17369 -2.87891,2.37109 -2.36707,1.9705 -4.69741,3.9533 -7,6 0,0.66 0,1.32 0,2 1.98,0.33 3.96,0.66 6,1 -0.33,0.99 -0.66,1.98 -1,3 -1.77008,0.081 -3.54122,0.1393 -5.3125,0.1875 -0.98613,0.035 -1.97227,0.07 -2.98828,0.1055 C 324,1014 324,1014 322.08203,1012.8008 321,1011 321,1011 321.08984,1008.5547 c 1.04793,-2.9414 2.21053,-4.2959 4.47266,-6.4297 0.71414,-0.6819 1.42828,-1.3638 2.16406,-2.0664 2.84445,-2.57565 5.74544,-5.07565 8.70703,-7.51563 1.826,-1.56518 1.826,-1.56518 2.56641,-4.54297 -1.32,-0.33 -2.64,-0.66 -4,-1 0,-0.66 0,-1.32 0,-2 z"
     style="fill:#0c0c0c"
     id="path142" />
  <path
     d="m 705.0625,106.0625 c 2.53772,1.22793 3.4487,2.55293 4.9375,4.9375 0.98168,5.83233 0.34667,11.04198 -3,16 -3.4352,2.29014 -4.98533,2.17843 -9,2 -2.41358,-4.22376 -3.6819,-7.12929 -3,-12 1.76949,-4.764 4.14168,-11.11692 10.0625,-10.9375 z"
     style="fill:#f8f8f8"
     id="path144" />
  <path
     d="m 931,217 c -0.55874,4.33026 -2.20545,7.92569 -4.02734,11.84375 -1.0647,2.26266 -1.0647,2.26266 -1.97266,5.15625 -1,2 -1,2 -2.80078,2.82031 C 920,237 920,237 917.89453,235.74219 c -0.68707,-0.61617 -1.37414,-1.23235 -2.08203,-1.86719 -0.6948,-0.6007 -1.38961,-1.20141 -2.10547,-1.82031 C 911.74169,229.68908 911.35007,228.02004 911,225 c 2.57859,-1.34327 5.16217,-2.67475 7.75,-4 0.72961,-0.38156 1.45922,-0.76313 2.21094,-1.15625 1.06347,-0.54141 1.06347,-0.54141 2.14843,-1.09375 0.64937,-0.33516 1.29874,-0.67031 1.96778,-1.01563 C 927,217 927,217 931,217 Z"
     style="fill:#f6f6f6"
     id="path146" />
  <path
     d="m 826,173 c 0.33,1.32 0.66,2.64 1,4 -0.99,0.33 -1.98,0.66 -3,1 -0.10312,0.5775 -0.20625,1.155 -0.3125,1.75 -1.12159,3.67065 -3.61379,5.12205 -6.6875,7.25 -2.5625,0.625 -2.5625,0.625 -5,0 -2.98281,-2.31996 -4.69835,-3.87565 -5.6875,-7.5625 0.80814,-2.86521 1.93607,-4.18391 4.48828,-5.72266 C 815.66057,172.1352 820.95745,172.73067 826,173 Z"
     style="fill:#f7f7f7"
     id="path148" />
  <path
     d="m 981.79297,322.39062 c 3.79699,1.04837 7.38918,2.82899 10.20703,5.60938 0,1.31999 0,2.63999 0,4 -8.16233,4.27712 -8.16233,4.27712 -12.66797,3.59765 C 977.14554,334.84333 975.07387,334.0219 973,333 c -0.081,-1.45743 -0.13918,-2.91613 -0.1875,-4.375 -0.0348,-0.81211 -0.0696,-1.62422 -0.10547,-2.46094 0.0967,-0.71414 0.19336,-1.42828 0.29297,-2.16406 3.35786,-2.23858 4.88507,-2.2184 8.79297,-1.60938 z"
     style="fill:#f8f8f8"
     id="path150" />
  <path
     d="m 421,1022 c 0.45079,6.4237 -0.2104,9.7367 -4,15 -3.16083,2.4233 -6.10949,2.1768 -10,2 -0.86019,-9.6724 -0.86019,-9.6724 2.25,-13.5625 4.02048,-3.5636 6.51593,-3.5829 11.75,-3.4375 z"
     style="fill:#f8f8f8"
     id="path152" />
  <path
     d="m 162.42187,333.68359 c 2.54386,0.004 5.0438,0.10244 7.57813,0.31641 0.73437,1.64843 0.73437,1.64843 1,4 -1.54688,2.72656 -1.54688,2.72656 -3.75,5.625 -0.71672,0.96164 -1.43344,1.92328 -2.17188,2.91406 C 163,349 163,349 160,351 c -0.70227,-1.24177 -1.3863,-2.49386 -2.0625,-3.75 -0.38286,-0.6961 -0.76571,-1.39219 -1.16016,-2.10938 C 155.85077,342.58906 156.10171,341.51934 157,339 c 0.46406,-1.36125 0.46406,-1.36125 0.9375,-2.75 C 160,334 160,334 162.42187,333.68359 Z"
     style="fill:#f2f2f2"
     id="path154" />
  <path
     d="m 112,467 c 0.36518,6.57315 -0.8638,11.79485 -3,18 -3.7539,-1.73865 -5.79763,-3.41096 -8,-7 0,-4.87454 1.70827,-7.50877 5,-11 2.49093,-1.24546 3.41081,-0.77676 6,0 z"
     style="fill:#f5f5f5"
     id="path156" />
  <path
     d="m 969,863 c 2.4375,0.25 2.4375,0.25 5,1 2.15943,3.23914 2.27233,4.2486 2.25,8 0.005,0.86625 0.0103,1.7325 0.0156,2.625 C 976,877 976,877 974,880 c -0.99,0 -1.98,0 -3,0 -0.30938,-0.80438 -0.61875,-1.60875 -0.9375,-2.4375 -0.82585,-2.4533 -0.82585,-2.4533 -2.0625,-3.5625 -0.0982,-1.66429 -0.12974,-3.33282 -0.125,-5 -0.003,-0.9075 -0.005,-1.815 -0.008,-2.75 C 968,864 968,864 969,863 Z"
     style="fill:#ededed"
     id="path158" />
  <path
     d="m 1028,760 c 4.75,0.75 4.75,0.75 7,3 0,0.99 0,1.98 0,3 0.66,0 1.32,0 2,0 0,3.63 0,7.26 0,11 -4,-1 -4,-1 -5.4844,-2.82031 C 1028.7522,769.14747 1027.3882,765.7505 1028,760 Z"
     style="fill:#f4f4f4"
     id="path160" />
  <path
     d="M 101.5,652.75 C 104,653 104,653 106,655 c 0.3125,3 0.3125,3 0,6 -3,2 -3,2 -5.5625,1.75 C 98,662 98,662 96,660 c 0.410056,-4.10056 0.966236,-6.79662 5.5,-7.25 z"
     style="fill:#f1f1f1"
     id="path162" />
  <path
     d="m 822.5,149.8125 c 0.79406,-0.0142 1.58812,-0.0284 2.40625,-0.043 C 827,150 827,150 829,152 c 0,0.99 0,1.98 0,3 -2.66667,0.66667 -5.33333,1.33333 -8,2 -0.71156,0.21656 -1.42313,0.43312 -2.15625,0.65625 -0.91266,0.17016 -0.91266,0.17016 -1.84375,0.34375 -1.75,-1.4375 -1.75,-1.4375 -3,-3 2.06396,-4.5702 3.56551,-5.14745 8.5,-5.1875 z"
     style="fill:#101010"
     id="path164" />
  <path
     d="m 1064,653 c 2.3394,0.2873 4.6739,0.61937 7,1 0.125,3.375 0.125,3.375 0,7 -2,2 -2,2 -4.5,2.25 C 1064,663 1064,663 1062,661 c 0.5769,-6.57692 0.5769,-6.57692 2,-8 z"
     style="fill:#f5f5f5"
     id="path166" />
  <path
     d="m 896,918 c 0.99,0 1.98,0 3,0 1.42163,3.31714 2.39009,6.4422 3,10 -4,0 -4,0 -6,-2 -2.68839,-0.26992 -5.29142,-0.0874 -8,0 0.625,-2.4375 0.625,-2.4375 2,-5 3.125,-0.8125 3.125,-0.8125 6,-1 0,-0.66 0,-1.32 0,-2 z"
     style="fill:#191919"
     id="path168" />
  <path
     d="m 854,1027 c 0.8125,1.6875 0.8125,1.6875 1,4 -2,2.8125 -2,2.8125 -5,5 -3.8125,-0.1875 -3.8125,-0.1875 -7,-1 -0.33,-1.32 -0.66,-2.64 -1,-4 1.04801,-0.1818 1.04801,-0.1818 2.11719,-0.3672 1.36511,-0.2514 1.36511,-0.2514 2.75781,-0.5078 1.35738,-0.2436 1.35738,-0.2436 2.74219,-0.4922 2.54787,-0.4632 2.54787,-0.4632 4.38281,-2.6328 z"
     style="fill:#161616"
     id="path170" />
  <path
     d="m 935,907 c 0.33,1.65 0.66,3.3 1,5 -0.93973,0.18176 -0.93973,0.18176 -1.89844,0.36719 -0.81726,0.16758 -1.63453,0.33515 -2.47656,0.50781 -1.21816,0.24363 -1.21816,0.24363 -2.46094,0.49219 -2.3508,0.4994 -2.3508,0.4994 -4.16406,2.63281 -0.66,0 -1.32,0 -2,0 0.33533,-3.01799 0.86566,-4.80882 2.625,-7.3125 3.20785,-2.27926 5.5322,-1.9831 9.375,-1.6875 z"
     style="fill:#131313"
     id="path172" />
  <path
     d="m 1031,673 c 3.96,0 7.92,0 12,0 -3.4071,5.67847 -3.4071,5.67847 -7.5,7.875 -0.7734,0.43055 -1.5469,0.86109 -2.3437,1.30469 C 1031,683 1031,683 1028,682 c 0.9694,-0.61875 1.9388,-1.2375 2.9375,-1.875 3.0909,-1.78179 3.0909,-1.78179 4.0625,-4.125 -1.32,-0.33 -2.64,-0.66 -4,-1 0,-0.66 0,-1.32 0,-2 z"
     style="fill:#222222"
     id="path174" />
  <path
     d="m 66,673 c 3.96,0 7.92,0 12,0 -2.208687,4.41737 -3.286556,5.07827 -7.5,7.3125 -0.979687,0.53238 -1.959375,1.06477 -2.96875,1.61328 C 66.278281,682.45752 66.278281,682.45752 65,683 c -0.66,-0.33 -1.32,-0.66 -2,-1 4.75,-4 4.75,-4 7,-4 0,-0.66 0,-1.32 0,-2 -1.32,-0.33 -2.64,-0.66 -4,-1 0,-0.66 0,-1.32 0,-2 z"
     style="fill:#252525"
     id="path176" />
  <path
     d="m 1089,456 c 2.875,-0.125 2.875,-0.125 6,0 0.66,0.66 1.32,1.32 2,2 -0.375,2.625 -0.375,2.625 -1,5 -1.9995,0.0425 -4.0004,0.0408 -6,0 -1,-1 -1,-1 -1.0625,-4.0625 0.021,-0.96938 0.041,-1.93875 0.062,-2.9375 z"
     style="fill:#0c0c0c"
     id="path178" />
  <path
     d="m 756.0625,97.9375 c 1.45406,0.03094 1.45406,0.03094 2.9375,0.0625 1.125,4.75 1.125,4.75 0,7 -1.99955,0.0425 -4.00042,0.0408 -6,0 -1,-1 -1,-1 -1.125,-3.5 0.18455,-3.690953 0.42408,-3.485695 4.1875,-3.5625 z"
     style="fill:#141414"
     id="path180" />
  <path
     d="m 780,987 c 1.67543,0.28605 3.34385,0.61781 5,1 0.625,2.375 0.625,2.375 1,5 -0.66,0.66 -1.32,1.32 -2,2 -2.625,-0.375 -2.625,-0.375 -5,-1 -0.0425,-1.99955 -0.0408,-4.00042 0,-6 0.33,-0.33 0.66,-0.66 1,-1 z"
     style="fill:#0e0e0e"
     id="path182" />
  <path
     d="m 251,881 c 1.32,0.66 2.64,1.32 4,2 -0.33,1.98 -0.66,3.96 -1,6 -1.65,0 -3.3,0 -5,0 -0.6875,-2.3125 -0.6875,-2.3125 -1,-5 1.4375,-1.8125 1.4375,-1.8125 3,-3 z"
     style="fill:#181818"
     id="path184" />
  <path
     d="m 935.625,871.875 c 0.78375,0.0412 1.5675,0.0825 2.375,0.125 0.38219,1.65615 0.71395,3.32457 1,5 -1,1 -1,1 -3.5625,1.0625 -1.20656,-0.0309 -1.20656,-0.0309 -2.4375,-0.0625 -0.66,-1.32 -1.32,-2.64 -2,-4 2,-2 2,-2 4.625,-2.125 z"
     style="fill:#141414"
     id="path186" />
  <path
     d="m 361.0625,969.9375 c 1.45406,0.0309 1.45406,0.0309 2.9375,0.0625 -0.875,4.875 -0.875,4.875 -2,6 -1.66617,0.0406 -3.33388,0.0427 -5,0 -0.0427,-1.66612 -0.0406,-3.33383 0,-5 1,-1 1,-1 4.0625,-1.0625 z"
     style="fill:#1c1c1c"
     id="path188" />
  <path
     d="m 1035,801 c 0.66,0 1.32,0 2,0 0.1856,0.95906 0.1856,0.95906 0.375,1.9375 0.3094,1.02094 0.3094,1.02094 0.625,2.0625 0.66,0.33 1.32,0.66 2,1 0,2.97 0,5.94 0,9 -3.6829,-2.45523 -3.9462,-3.78479 -5,-8 -0.125,-3.375 -0.125,-3.375 0,-6 z"
     style="fill:#1a1a1a"
     id="path190" />
  <path
     d="m 734,1031 c 0.99,0.33 1.98,0.66 3,1 -0.33,0.33 -0.66,0.66 -1,1 -0.39149,1.5117 -0.73972,3.0347 -1.0625,4.5625 -0.2649,1.2394 -0.2649,1.2394 -0.53516,2.5039 -0.13277,0.6381 -0.26554,1.2762 -0.40234,1.9336 -0.66,-0.33 -1.32,-0.66 -2,-1 -0.19531,-6.0547 -0.19531,-6.0547 0,-8 0.66,-0.66 1.32,-1.32 2,-2 z"
     style="fill:#282828"
     id="path192" />
  <path
     d="m 946,926 c 0.66,0.33 1.32,0.66 2,1 0,3.3 0,6.6 0,10 -0.99,-0.33 -1.98,-0.66 -3,-1 -0.0269,-1.47907 -0.0463,-2.95827 -0.0625,-4.4375 -0.0116,-0.82371 -0.0232,-1.64742 -0.0352,-2.49609 C 945,927 945,927 946,926 Z"
     style="fill:#2f2f2f"
     id="path194" />
  <path
     d="m 363,998 c 0.99,0.66 1.98,1.32 3,2 -6.5,4 -6.5,4 -11,4 0,-0.66 0,-1.32 0,-2 2.64,-1.32 5.28,-2.64 8,-4 z"
     style="fill:#292929"
     id="path196" />
  <path
     d="m 140,633 c 0.33,0.99 0.66,1.98 1,3 -4.75,4 -4.75,4 -7,4 0.1875,-1.8125 0.1875,-1.8125 1,-4 2.5625,-1.75 2.5625,-1.75 5,-3 z"
     style="fill:#232323"
     id="path198" />
  <path
     d="m 564,1052 c 0.66,0.33 1.32,0.66 2,1 -1.44254,3.3659 -3.33265,5.5105 -6,8 0.53069,-3.821 1.49702,-6.0617 4,-9 z"
     style="fill:#313131"
     id="path200" />
  <path
     d="M 136.5625,676.75 C 139,678 139,678 141,681 c -5,-1 -5,-1 -10,-2 0,-0.66 0,-1.32 0,-2 3,-1 3,-1 5.5625,-0.25 z"
     style="fill:#353535"
     id="path202" />
  <path
     d="m 63,646 c 2.31,0 4.62,0 7,0 0,0.66 0,1.32 0,2 1.32,0.33 2.64,0.66 4,1 -7.507692,0.36923 -7.507692,0.36923 -10,-1.5 -0.33,-0.495 -0.66,-0.99 -1,-1.5 z"
     style="fill:#494949"
     id="path204" />
  <path
     d="m 1065,613 c 0.66,0.33 1.32,0.66 2,1 0,2.31 0,4.62 0,7 -0.99,0 -1.98,0 -3,0 -0.042,-2.33295 -0.041,-4.66703 0,-7 0.33,-0.33 0.66,-0.66 1,-1 z"
     style="fill:#2c2c2c"
     id="path206" />
  <path
     d="m 582,1051 c 2.31,0 4.62,0 7,0 -1.32,0.33 -2.64,0.66 -4,1 0,0.66 0,1.32 0,2 -1.98,0.99 -3.96,1.98 -6,3 1,-2 2,-4 3,-6 z"
     style="fill:#1b1b1b"
     id="path208" />
  <path
     d="m 983,846 c 0.66,0 1.32,0 2,0 1,3 2,6 3,9 -1.9375,-0.5625 -1.9375,-0.5625 -4,-2 -0.75,-3.625 -0.75,-3.625 -1,-7 z"
     style="fill:#1d1d1d"
     id="path210" />
  <path
     d="m 162,806 c 2.875,-0.125 2.875,-0.125 6,0 0.66,0.66 1.32,1.32 2,2 -1,1 -1,1 -4.0625,1.0625 -0.96938,-0.0206 -1.93875,-0.0412 -2.9375,-0.0625 -0.33,-0.99 -0.66,-1.98 -1,-3 z"
     style="fill:#303030"
     id="path212" />
  <path
     d="M 1101.5625,676.75 C 1104,678 1104,678 1106,681 c -1.4812,-0.28127 -2.9599,-0.57534 -4.4375,-0.875 -0.8237,-0.16242 -1.6474,-0.32484 -2.4961,-0.49219 -0.6819,-0.20883 -1.3638,-0.41765 -2.0664,-0.63281 -0.33,-0.66 -0.66,-1.32 -1,-2 3,-1 3,-1 5.5625,-0.25 z"
     style="fill:#2c2c2c"
     id="path214" />
  <path
     d="m 499,1066 c 0.66,0 1.32,0 2,0 -0.57345,2.8672 -0.86145,3.8615 -3,6 -0.99,-0.33 -1.98,-0.66 -3,-1 1.28062,-1.7075 2.61768,-3.3737 4,-5 z"
     style="fill:#141414"
     id="path216" />
  <path
     d="m 665,1044 c 0.66,0.33 1.32,0.66 2,1 -1.8125,3 -1.8125,3 -4,6 -0.99,0 -1.98,0 -3,0 1.293,-2.8844 2.65941,-4.8722 5,-7 z"
     style="fill:#161616"
     id="path218" />
  <circle
     style="fill:#3988e1;fill-opacity:0;stroke:#000000;stroke-width:6.10776;stroke-linecap:round;stroke-opacity:1;paint-order:fill markers stroke"
     id="path558"
     cx="588"
     cy="587.5"
     r="587.5" />
  <circle
     style="display:block;fill:#3988e1;fill-opacity:0;stroke:#000000;stroke-width:10;stroke-linecap:round;stroke-dasharray:none;stroke-opacity:1;paint-order:fill markers stroke"
     id="path558-7"
     cx="588"
     cy="587.5"
     r="378.03494" />
</svg>
